<mxfile host="65bd71144e">
    <diagram id="VcL4bj26udjojHI4lYyt" name="Classes">
        <mxGraphModel dx="1728" dy="1021" grid="1" gridSize="10" guides="1" tooltips="1" connect="1" arrows="1" fold="1" page="1" pageScale="1" pageWidth="827" pageHeight="1169" math="0" shadow="0">
            <root>
                <mxCell id="0"/>
                <mxCell id="1" parent="0"/>
                <mxCell id="2" value="JCA::IOT::FuncHandler" style="swimlane;fontStyle=1;align=center;verticalAlign=top;childLayout=stackLayout;horizontal=1;startSize=26;horizontalStack=0;resizeParent=1;resizeParentMax=0;resizeLast=0;collapsible=1;marginBottom=0;" parent="1" vertex="1">
                    <mxGeometry x="154" y="80" width="520" height="310" as="geometry">
                        <mxRectangle x="80" y="80" width="100" height="26" as="alternateBounds"/>
                    </mxGeometry>
                </mxCell>
                <mxCell id="20" value="SetupFilePath : String" style="label;fontStyle=0;strokeColor=#82b366;fillColor=#d5e8d4;align=left;verticalAlign=top;overflow=hidden;spacingLeft=28;spacingRight=4;rotatable=0;points=[[0,0.5],[1,0.5]];portConstraint=eastwest;imageWidth=16;imageHeight=16;image=data:image/svg+xml,PHN2ZyB4bWxucz0iaHR0cDovL3d3dy53My5vcmcvMjAwMC9zdmciIGhlaWdodD0iNDgiIHdpZHRoPSI0OCIgdmlld0JveD0iMCAwIDQ4IDQ4Ij4KICA8cGF0aCBmaWxsPSJncmVlbiIgZD0iTTI0IDQzLjk1cS03LTEuNzUtMTEuNS04LjEyNVQ4IDIxLjg1VjkuOTVsMTYtNiAxNiA2djExLjlxMCA3LjYtNC41IDEzLjk3NVQyNCA0My45NVptMC0zLjFxNS43NS0xLjkgOS4zNzUtNy4xNzVUMzcgMjEuODV2LTkuOGwtMTMtNC45LTEzIDQuOXY5LjhxMCA2LjU1IDMuNjI1IDExLjgyNVExOC4yNSAzOC45NSAyNCA0MC44NVpNMjQgMjRaIi8+Cjwvc3ZnPg==;rounded=1;shadow=0;glass=0;autosize=0;imageVerticalAlign=middle;spacing=0;spacingBottom=0;" parent="2" vertex="1">
                    <mxGeometry y="26" width="520" height="20" as="geometry"/>
                </mxCell>
                <mxCell id="219" value="FuncFilePath : String" style="label;fontStyle=0;strokeColor=#82b366;fillColor=#d5e8d4;align=left;verticalAlign=top;overflow=hidden;spacingLeft=28;spacingRight=4;rotatable=0;points=[[0,0.5],[1,0.5]];portConstraint=eastwest;imageWidth=16;imageHeight=16;image=data:image/svg+xml,PHN2ZyB4bWxucz0iaHR0cDovL3d3dy53My5vcmcvMjAwMC9zdmciIGhlaWdodD0iNDgiIHdpZHRoPSI0OCIgdmlld0JveD0iMCAwIDQ4IDQ4Ij4KICA8cGF0aCBmaWxsPSJncmVlbiIgZD0iTTI0IDQzLjk1cS03LTEuNzUtMTEuNS04LjEyNVQ4IDIxLjg1VjkuOTVsMTYtNiAxNiA2djExLjlxMCA3LjYtNC41IDEzLjk3NVQyNCA0My45NVptMC0zLjFxNS43NS0xLjkgOS4zNzUtNy4xNzVUMzcgMjEuODV2LTkuOGwtMTMtNC45LTEzIDQuOXY5LjhxMCA2LjU1IDMuNjI1IDExLjgyNVExOC4yNSAzOC45NSAyNCA0MC44NVpNMjQgMjRaIi8+Cjwvc3ZnPg==;rounded=1;shadow=0;glass=0;autosize=0;imageVerticalAlign=middle;spacing=0;spacingBottom=0;" parent="2" vertex="1">
                    <mxGeometry y="46" width="520" height="20" as="geometry"/>
                </mxCell>
                <mxCell id="220" value="ValueFilePath : String" style="label;fontStyle=0;strokeColor=#82b366;fillColor=#d5e8d4;align=left;verticalAlign=top;overflow=hidden;spacingLeft=28;spacingRight=4;rotatable=0;points=[[0,0.5],[1,0.5]];portConstraint=eastwest;imageWidth=16;imageHeight=16;image=data:image/svg+xml,PHN2ZyB4bWxucz0iaHR0cDovL3d3dy53My5vcmcvMjAwMC9zdmciIGhlaWdodD0iNDgiIHdpZHRoPSI0OCIgdmlld0JveD0iMCAwIDQ4IDQ4Ij4KICA8cGF0aCBmaWxsPSJncmVlbiIgZD0iTTI0IDQzLjk1cS03LTEuNzUtMTEuNS04LjEyNVQ4IDIxLjg1VjkuOTVsMTYtNiAxNiA2djExLjlxMCA3LjYtNC41IDEzLjk3NVQyNCA0My45NVptMC0zLjFxNS43NS0xLjkgOS4zNzUtNy4xNzVUMzcgMjEuODV2LTkuOGwtMTMtNC45LTEzIDQuOXY5LjhxMCA2LjU1IDMuNjI1IDExLjgyNVExOC4yNSAzOC45NSAyNCA0MC44NVpNMjQgMjRaIi8+Cjwvc3ZnPg==;rounded=1;shadow=0;glass=0;autosize=0;imageVerticalAlign=middle;spacing=0;spacingBottom=0;" parent="2" vertex="1">
                    <mxGeometry y="66" width="520" height="20" as="geometry"/>
                </mxCell>
                <mxCell id="218" value="LastUpdate : ULong" style="label;fontStyle=0;strokeColor=#82b366;fillColor=#d5e8d4;align=left;verticalAlign=top;overflow=hidden;spacingLeft=28;spacingRight=4;rotatable=0;points=[[0,0.5],[1,0.5]];portConstraint=eastwest;imageWidth=16;imageHeight=16;image=data:image/svg+xml,PHN2ZyB4bWxucz0iaHR0cDovL3d3dy53My5vcmcvMjAwMC9zdmciIGhlaWdodD0iNDgiIHdpZHRoPSI0OCIgdmlld0JveD0iMCAwIDQ4IDQ4Ij4KICA8cGF0aCBmaWxsPSJncmVlbiIgZD0iTTI0IDQzLjk1cS03LTEuNzUtMTEuNS04LjEyNVQ4IDIxLjg1VjkuOTVsMTYtNiAxNiA2djExLjlxMCA3LjYtNC41IDEzLjk3NVQyNCA0My45NVptMC0zLjFxNS43NS0xLjkgOS4zNzUtNy4xNzVUMzcgMjEuODV2LTkuOGwtMTMtNC45LTEzIDQuOXY5LjhxMCA2LjU1IDMuNjI1IDExLjgyNVExOC4yNSAzOC45NSAyNCA0MC44NVpNMjQgMjRaIi8+Cjwvc3ZnPg==;rounded=1;shadow=0;glass=0;autosize=0;imageVerticalAlign=middle;spacing=0;spacingBottom=0;" parent="2" vertex="1">
                    <mxGeometry y="86" width="520" height="20" as="geometry"/>
                </mxCell>
                <mxCell id="44" value="FuntionList : std::map&lt;String, std::function&lt;bool (JsonObject, std::vector&lt;Parent*&gt;&amp; )&gt; &gt;" style="label;fontStyle=0;strokeColor=#82b366;fillColor=#d5e8d4;align=left;verticalAlign=top;overflow=hidden;spacingLeft=28;spacingRight=0;rotatable=0;points=[[0,0.5],[1,0.5]];portConstraint=eastwest;imageWidth=16;imageHeight=16;image=data:image/svg+xml,PHN2ZyB4bWxucz0iaHR0cDovL3d3dy53My5vcmcvMjAwMC9zdmciIGhlaWdodD0iNDgiIHdpZHRoPSI0OCIgdmlld0JveD0iMCAwIDQ4IDQ4Ij4KICA8cGF0aCBmaWxsPSJncmVlbiIgZD0iTTI0IDQ0cS00LjE1IDAtNy44LTEuNTc1LTMuNjUtMS41NzUtNi4zNS00LjI3NS0yLjctMi43LTQuMjc1LTYuMzVRNCAyOC4xNSA0IDI0dDEuNTc1LTcuOFE3LjE1IDEyLjU1IDkuODUgOS44NXEyLjctMi43IDYuMzUtNC4yNzVRMTkuODUgNCAyNCA0dDcuOCAxLjU3NXEzLjY1IDEuNTc1IDYuMzUgNC4yNzUgMi43IDIuNyA0LjI3NSA2LjM1UTQ0IDE5Ljg1IDQ0IDI0dC0xLjU3NSA3LjhxLTEuNTc1IDMuNjUtNC4yNzUgNi4zNS0yLjcgMi43LTYuMzUgNC4yNzVRMjguMTUgNDQgMjQgNDRabS0yLjE1LTMuMDV2LTQuMXEtMS43NSAwLTIuOTUtMS4zLTEuMi0xLjMtMS4yLTMuMDV2LTIuMkw3LjQ1IDIwLjA1cS0uMjUgMS0uMzUgMS45NzVRNyAyMyA3IDI0cTAgNi41IDQuMjI1IDExLjM1dDEwLjYyNSA1LjZabTE0LjctNS40cTEuMS0xLjIgMS45MjUtMi41NS44MjUtMS4zNSAxLjQtMi44MjV0Ljg1LTMuMDI1UTQxIDI1LjYgNDEgMjRxMC01LjMtMi45LTkuNjI1VDMwLjM1IDguMDV2LjlxMCAxLjc1LTEuMiAzLjA1LTEuMiAxLjMtMi45NSAxLjNoLTQuMzV2NC4zNXEwIC44NS0uNjc1IDEuNC0uNjc1LjU1LTEuNTI1LjU1SDE1LjVWMjRoMTIuOXEuODUgMCAxLjQuNjUuNTUuNjUuNTUgMS41djYuMzVoMi4xNXExLjQ1IDAgMi41NS44NSAxLjEuODUgMS41IDIuMloiLz4KPC9zdmc+;rounded=1;shadow=0;glass=0;rotation=0;imageVerticalAlign=middle;autosize=0;spacing=0;spacingTop=0;spacingBottom=0;" parent="2" vertex="1">
                    <mxGeometry y="106" width="520" height="20" as="geometry"/>
                </mxCell>
                <mxCell id="216" value="Functions : std::vector&lt;Parent*&gt;" style="label;fontStyle=0;strokeColor=#82b366;fillColor=#d5e8d4;align=left;verticalAlign=top;overflow=hidden;spacingLeft=28;spacingRight=0;rotatable=0;points=[[0,0.5],[1,0.5]];portConstraint=eastwest;imageWidth=16;imageHeight=16;image=data:image/svg+xml,PHN2ZyB4bWxucz0iaHR0cDovL3d3dy53My5vcmcvMjAwMC9zdmciIGhlaWdodD0iNDgiIHdpZHRoPSI0OCIgdmlld0JveD0iMCAwIDQ4IDQ4Ij4KICA8cGF0aCBmaWxsPSJncmVlbiIgZD0iTTI0IDQ0cS00LjE1IDAtNy44LTEuNTc1LTMuNjUtMS41NzUtNi4zNS00LjI3NS0yLjctMi43LTQuMjc1LTYuMzVRNCAyOC4xNSA0IDI0dDEuNTc1LTcuOFE3LjE1IDEyLjU1IDkuODUgOS44NXEyLjctMi43IDYuMzUtNC4yNzVRMTkuODUgNCAyNCA0dDcuOCAxLjU3NXEzLjY1IDEuNTc1IDYuMzUgNC4yNzUgMi43IDIuNyA0LjI3NSA2LjM1UTQ0IDE5Ljg1IDQ0IDI0dC0xLjU3NSA3LjhxLTEuNTc1IDMuNjUtNC4yNzUgNi4zNS0yLjcgMi43LTYuMzUgNC4yNzVRMjguMTUgNDQgMjQgNDRabS0yLjE1LTMuMDV2LTQuMXEtMS43NSAwLTIuOTUtMS4zLTEuMi0xLjMtMS4yLTMuMDV2LTIuMkw3LjQ1IDIwLjA1cS0uMjUgMS0uMzUgMS45NzVRNyAyMyA3IDI0cTAgNi41IDQuMjI1IDExLjM1dDEwLjYyNSA1LjZabTE0LjctNS40cTEuMS0xLjIgMS45MjUtMi41NS44MjUtMS4zNSAxLjQtMi44MjV0Ljg1LTMuMDI1UTQxIDI1LjYgNDEgMjRxMC01LjMtMi45LTkuNjI1VDMwLjM1IDguMDV2LjlxMCAxLjc1LTEuMiAzLjA1LTEuMiAxLjMtMi45NSAxLjNoLTQuMzV2NC4zNXEwIC44NS0uNjc1IDEuNC0uNjc1LjU1LTEuNTI1LjU1SDE1LjVWMjRoMTIuOXEuODUgMCAxLjQuNjUuNTUuNjUuNTUgMS41djYuMzVoMi4xNXExLjQ1IDAgMi41NS44NSAxLjEuODUgMS41IDIuMloiLz4KPC9zdmc+;rounded=1;shadow=0;glass=0;rotation=0;imageVerticalAlign=middle;autosize=0;spacing=0;spacingTop=0;spacingBottom=0;" parent="2" vertex="1">
                    <mxGeometry y="126" width="520" height="20" as="geometry"/>
                </mxCell>
                <mxCell id="239" value="Links : std::vector&lt;uint32_t, uint32_t&gt;  // Quelle, Ziel" style="label;fontStyle=0;strokeColor=#82b366;fillColor=#d5e8d4;align=left;verticalAlign=top;overflow=hidden;spacingLeft=28;spacingRight=4;rotatable=0;points=[[0,0.5],[1,0.5]];portConstraint=eastwest;imageWidth=16;imageHeight=16;image=data:image/svg+xml,PHN2ZyB4bWxucz0iaHR0cDovL3d3dy53My5vcmcvMjAwMC9zdmciIGhlaWdodD0iNDgiIHdpZHRoPSI0OCIgdmlld0JveD0iMCAwIDQ4IDQ4Ij4KICA8cGF0aCBmaWxsPSJncmVlbiIgZD0iTTI0IDQzLjk1cS03LTEuNzUtMTEuNS04LjEyNVQ4IDIxLjg1VjkuOTVsMTYtNiAxNiA2djExLjlxMCA3LjYtNC41IDEzLjk3NVQyNCA0My45NVptMC0zLjFxNS43NS0xLjkgOS4zNzUtNy4xNzVUMzcgMjEuODV2LTkuOGwtMTMtNC45LTEzIDQuOXY5LjhxMCA2LjU1IDMuNjI1IDExLjgyNVExOC4yNSAzOC45NSAyNCA0MC44NVpNMjQgMjRaIi8+Cjwvc3ZnPg==;rounded=1;shadow=0;glass=0;autosize=0;imageVerticalAlign=middle;spacing=0;spacingBottom=0;" parent="2" vertex="1">
                    <mxGeometry y="146" width="520" height="20" as="geometry"/>
                </mxCell>
                <mxCell id="33" value="" style="line;strokeWidth=1;fillColor=none;align=left;verticalAlign=middle;spacingTop=-1;spacingLeft=3;spacingRight=3;rotatable=0;labelPosition=right;points=[];portConstraint=eastwest;rounded=1;shadow=0;glass=0;" parent="2" vertex="1">
                    <mxGeometry y="166" width="520" height="4" as="geometry"/>
                </mxCell>
                <mxCell id="51" value="FuncHandler (String _SetupFilePath, String _FunctionFilePath, String _ValueFilePath)" style="text;strokeColor=none;fillColor=none;align=left;verticalAlign=middle;spacingLeft=4;spacingRight=4;overflow=hidden;rotatable=0;points=[[0,0.5],[1,0.5]];portConstraint=eastwest;rounded=1;shadow=0;glass=0;" parent="2" vertex="1">
                    <mxGeometry y="170" width="520" height="20" as="geometry"/>
                </mxCell>
                <mxCell id="225" value="setup () : void  // verwendet die FunctionList-Map" style="label;fontStyle=0;strokeColor=none;fillColor=none;align=left;verticalAlign=top;overflow=hidden;spacingLeft=28;spacingRight=0;rotatable=0;points=[[0,0.5],[1,0.5]];portConstraint=eastwest;imageWidth=16;imageHeight=16;image=data:image/svg+xml,PHN2ZyB4bWxucz0iaHR0cDovL3d3dy53My5vcmcvMjAwMC9zdmciIGhlaWdodD0iNDgiIHdpZHRoPSI0OCIgdmlld0JveD0iMCAwIDQ4IDQ4Ij4KICA8cGF0aCBmaWxsPSJncmVlbiIgZD0iTTI0IDQ0cS00LjE1IDAtNy44LTEuNTc1LTMuNjUtMS41NzUtNi4zNS00LjI3NS0yLjctMi43LTQuMjc1LTYuMzVRNCAyOC4xNSA0IDI0dDEuNTc1LTcuOFE3LjE1IDEyLjU1IDkuODUgOS44NXEyLjctMi43IDYuMzUtNC4yNzVRMTkuODUgNCAyNCA0dDcuOCAxLjU3NXEzLjY1IDEuNTc1IDYuMzUgNC4yNzUgMi43IDIuNyA0LjI3NSA2LjM1UTQ0IDE5Ljg1IDQ0IDI0dC0xLjU3NSA3LjhxLTEuNTc1IDMuNjUtNC4yNzUgNi4zNS0yLjcgMi43LTYuMzUgNC4yNzVRMjguMTUgNDQgMjQgNDRabS0yLjE1LTMuMDV2LTQuMXEtMS43NSAwLTIuOTUtMS4zLTEuMi0xLjMtMS4yLTMuMDV2LTIuMkw3LjQ1IDIwLjA1cS0uMjUgMS0uMzUgMS45NzVRNyAyMyA3IDI0cTAgNi41IDQuMjI1IDExLjM1dDEwLjYyNSA1LjZabTE0LjctNS40cTEuMS0xLjIgMS45MjUtMi41NS44MjUtMS4zNSAxLjQtMi44MjV0Ljg1LTMuMDI1UTQxIDI1LjYgNDEgMjRxMC01LjMtMi45LTkuNjI1VDMwLjM1IDguMDV2LjlxMCAxLjc1LTEuMiAzLjA1LTEuMiAxLjMtMi45NSAxLjNoLTQuMzV2NC4zNXEwIC44NS0uNjc1IDEuNC0uNjc1LjU1LTEuNTI1LjU1SDE1LjVWMjRoMTIuOXEuODUgMCAxLjQuNjUuNTUuNjUuNTUgMS41djYuMzVoMi4xNXExLjQ1IDAgMi41NS44NSAxLjEuODUgMS41IDIuMloiLz4KPC9zdmc+;rounded=1;shadow=0;glass=0;rotation=0;imageVerticalAlign=middle;autosize=0;spacing=0;spacingTop=0;spacingBottom=0;" parent="2" vertex="1">
                    <mxGeometry y="190" width="520" height="20" as="geometry"/>
                </mxCell>
                <mxCell id="21" value="saveFunctions () : void // loop den Functions-Vector" style="label;fontStyle=0;strokeColor=#82b366;fillColor=#d5e8d4;align=left;verticalAlign=top;overflow=hidden;spacingLeft=28;spacingRight=4;rotatable=0;points=[[0,0.5],[1,0.5]];portConstraint=eastwest;imageWidth=16;imageHeight=16;image=data:image/svg+xml,PHN2ZyB4bWxucz0iaHR0cDovL3d3dy53My5vcmcvMjAwMC9zdmciIGhlaWdodD0iNDgiIHdpZHRoPSI0OCIgdmlld0JveD0iMCAwIDQ4IDQ4Ij4KICA8cGF0aCBmaWxsPSJncmVlbiIgZD0iTTI0IDQzLjk1cS03LTEuNzUtMTEuNS04LjEyNVQ4IDIxLjg1VjkuOTVsMTYtNiAxNiA2djExLjlxMCA3LjYtNC41IDEzLjk3NVQyNCA0My45NVptMC0zLjFxNS43NS0xLjkgOS4zNzUtNy4xNzVUMzcgMjEuODV2LTkuOGwtMTMtNC45LTEzIDQuOXY5LjhxMCA2LjU1IDMuNjI1IDExLjgyNVExOC4yNSAzOC45NSAyNCA0MC44NVpNMjQgMjRaIi8+Cjwvc3ZnPg==;rounded=1;shadow=0;glass=0;autosize=0;imageVerticalAlign=middle;spacing=0;arcSize=12;fillOpacity=100;spacingBottom=0;" parent="2" vertex="1">
                    <mxGeometry y="210" width="520" height="20" as="geometry"/>
                </mxCell>
                <mxCell id="45" value="update (struct tm &amp;_Time);" style="label;fontStyle=0;strokeColor=none;fillColor=none;align=left;verticalAlign=top;overflow=hidden;spacingLeft=28;spacingRight=0;rotatable=0;points=[[0,0.5],[1,0.5]];portConstraint=eastwest;imageWidth=16;imageHeight=16;image=data:image/svg+xml,PHN2ZyB4bWxucz0iaHR0cDovL3d3dy53My5vcmcvMjAwMC9zdmciIGhlaWdodD0iNDgiIHdpZHRoPSI0OCIgdmlld0JveD0iMCAwIDQ4IDQ4Ij4KICA8cGF0aCBmaWxsPSJncmVlbiIgZD0iTTI0IDQ0cS00LjE1IDAtNy44LTEuNTc1LTMuNjUtMS41NzUtNi4zNS00LjI3NS0yLjctMi43LTQuMjc1LTYuMzVRNCAyOC4xNSA0IDI0dDEuNTc1LTcuOFE3LjE1IDEyLjU1IDkuODUgOS44NXEyLjctMi43IDYuMzUtNC4yNzVRMTkuODUgNCAyNCA0dDcuOCAxLjU3NXEzLjY1IDEuNTc1IDYuMzUgNC4yNzUgMi43IDIuNyA0LjI3NSA2LjM1UTQ0IDE5Ljg1IDQ0IDI0dC0xLjU3NSA3LjhxLTEuNTc1IDMuNjUtNC4yNzUgNi4zNS0yLjcgMi43LTYuMzUgNC4yNzVRMjguMTUgNDQgMjQgNDRabS0yLjE1LTMuMDV2LTQuMXEtMS43NSAwLTIuOTUtMS4zLTEuMi0xLjMtMS4yLTMuMDV2LTIuMkw3LjQ1IDIwLjA1cS0uMjUgMS0uMzUgMS45NzVRNyAyMyA3IDI0cTAgNi41IDQuMjI1IDExLjM1dDEwLjYyNSA1LjZabTE0LjctNS40cTEuMS0xLjIgMS45MjUtMi41NS44MjUtMS4zNSAxLjQtMi44MjV0Ljg1LTMuMDI1UTQxIDI1LjYgNDEgMjRxMC01LjMtMi45LTkuNjI1VDMwLjM1IDguMDV2LjlxMCAxLjc1LTEuMiAzLjA1LTEuMiAxLjMtMi45NSAxLjNoLTQuMzV2NC4zNXEwIC44NS0uNjc1IDEuNC0uNjc1LjU1LTEuNTI1LjU1SDE1LjVWMjRoMTIuOXEuODUgMCAxLjQuNjUuNTUuNjUuNTUgMS41djYuMzVoMi4xNXExLjQ1IDAgMi41NS44NSAxLjEuODUgMS41IDIuMloiLz4KPC9zdmc+;rounded=1;shadow=0;glass=0;rotation=0;imageVerticalAlign=middle;autosize=0;spacing=0;spacingTop=0;spacingBottom=0;" parent="2" vertex="1">
                    <mxGeometry y="230" width="520" height="20" as="geometry"/>
                </mxCell>
                <mxCell id="222" value="setValues (JsonObject &amp;_Functions) : void  // sucht im Functions-Vector" style="label;fontStyle=0;strokeColor=none;fillColor=none;align=left;verticalAlign=top;overflow=hidden;spacingLeft=28;spacingRight=0;rotatable=0;points=[[0,0.5],[1,0.5]];portConstraint=eastwest;imageWidth=16;imageHeight=16;image=data:image/svg+xml,PHN2ZyB4bWxucz0iaHR0cDovL3d3dy53My5vcmcvMjAwMC9zdmciIGhlaWdodD0iNDgiIHdpZHRoPSI0OCIgdmlld0JveD0iMCAwIDQ4IDQ4Ij4KICA8cGF0aCBmaWxsPSJncmVlbiIgZD0iTTI0IDQ0cS00LjE1IDAtNy44LTEuNTc1LTMuNjUtMS41NzUtNi4zNS00LjI3NS0yLjctMi43LTQuMjc1LTYuMzVRNCAyOC4xNSA0IDI0dDEuNTc1LTcuOFE3LjE1IDEyLjU1IDkuODUgOS44NXEyLjctMi43IDYuMzUtNC4yNzVRMTkuODUgNCAyNCA0dDcuOCAxLjU3NXEzLjY1IDEuNTc1IDYuMzUgNC4yNzUgMi43IDIuNyA0LjI3NSA2LjM1UTQ0IDE5Ljg1IDQ0IDI0dC0xLjU3NSA3LjhxLTEuNTc1IDMuNjUtNC4yNzUgNi4zNS0yLjcgMi43LTYuMzUgNC4yNzVRMjguMTUgNDQgMjQgNDRabS0yLjE1LTMuMDV2LTQuMXEtMS43NSAwLTIuOTUtMS4zLTEuMi0xLjMtMS4yLTMuMDV2LTIuMkw3LjQ1IDIwLjA1cS0uMjUgMS0uMzUgMS45NzVRNyAyMyA3IDI0cTAgNi41IDQuMjI1IDExLjM1dDEwLjYyNSA1LjZabTE0LjctNS40cTEuMS0xLjIgMS45MjUtMi41NS44MjUtMS4zNSAxLjQtMi44MjV0Ljg1LTMuMDI1UTQxIDI1LjYgNDEgMjRxMC01LjMtMi45LTkuNjI1VDMwLjM1IDguMDV2LjlxMCAxLjc1LTEuMiAzLjA1LTEuMiAxLjMtMi45NSAxLjNoLTQuMzV2NC4zNXEwIC44NS0uNjc1IDEuNC0uNjc1LjU1LTEuNTI1LjU1SDE1LjVWMjRoMTIuOXEuODUgMCAxLjQuNjUuNTUuNjUuNTUgMS41djYuMzVoMi4xNXExLjQ1IDAgMi41NS44NSAxLjEuODUgMS41IDIuMloiLz4KPC9zdmc+;rounded=1;shadow=0;glass=0;rotation=0;imageVerticalAlign=middle;autosize=0;spacing=0;spacingTop=0;spacingBottom=0;" parent="2" vertex="1">
                    <mxGeometry y="250" width="520" height="20" as="geometry"/>
                </mxCell>
                <mxCell id="223" value="getValues (JsonObject &amp;_Functions) : void  // loop den Functions-Vector" style="label;fontStyle=0;strokeColor=none;fillColor=none;align=left;verticalAlign=top;overflow=hidden;spacingLeft=28;spacingRight=0;rotatable=0;points=[[0,0.5],[1,0.5]];portConstraint=eastwest;imageWidth=16;imageHeight=16;image=data:image/svg+xml,PHN2ZyB4bWxucz0iaHR0cDovL3d3dy53My5vcmcvMjAwMC9zdmciIGhlaWdodD0iNDgiIHdpZHRoPSI0OCIgdmlld0JveD0iMCAwIDQ4IDQ4Ij4KICA8cGF0aCBmaWxsPSJncmVlbiIgZD0iTTI0IDQ0cS00LjE1IDAtNy44LTEuNTc1LTMuNjUtMS41NzUtNi4zNS00LjI3NS0yLjctMi43LTQuMjc1LTYuMzVRNCAyOC4xNSA0IDI0dDEuNTc1LTcuOFE3LjE1IDEyLjU1IDkuODUgOS44NXEyLjctMi43IDYuMzUtNC4yNzVRMTkuODUgNCAyNCA0dDcuOCAxLjU3NXEzLjY1IDEuNTc1IDYuMzUgNC4yNzUgMi43IDIuNyA0LjI3NSA2LjM1UTQ0IDE5Ljg1IDQ0IDI0dC0xLjU3NSA3LjhxLTEuNTc1IDMuNjUtNC4yNzUgNi4zNS0yLjcgMi43LTYuMzUgNC4yNzVRMjguMTUgNDQgMjQgNDRabS0yLjE1LTMuMDV2LTQuMXEtMS43NSAwLTIuOTUtMS4zLTEuMi0xLjMtMS4yLTMuMDV2LTIuMkw3LjQ1IDIwLjA1cS0uMjUgMS0uMzUgMS45NzVRNyAyMyA3IDI0cTAgNi41IDQuMjI1IDExLjM1dDEwLjYyNSA1LjZabTE0LjctNS40cTEuMS0xLjIgMS45MjUtMi41NS44MjUtMS4zNSAxLjQtMi44MjV0Ljg1LTMuMDI1UTQxIDI1LjYgNDEgMjRxMC01LjMtMi45LTkuNjI1VDMwLjM1IDguMDV2LjlxMCAxLjc1LTEuMiAzLjA1LTEuMiAxLjMtMi45NSAxLjNoLTQuMzV2NC4zNXEwIC44NS0uNjc1IDEuNC0uNjc1LjU1LTEuNTI1LjU1SDE1LjVWMjRoMTIuOXEuODUgMCAxLjQuNjUuNTUuNjUuNTUgMS41djYuMzVoMi4xNXExLjQ1IDAgMi41NS44NSAxLjEuODUgMS41IDIuMloiLz4KPC9zdmc+;rounded=1;shadow=0;glass=0;rotation=0;imageVerticalAlign=middle;autosize=0;spacing=0;spacingTop=0;spacingBottom=0;" parent="2" vertex="1">
                    <mxGeometry y="270" width="520" height="20" as="geometry"/>
                </mxCell>
                <mxCell id="46" value="saveValues () : void  // loop den Functions-Vector" style="label;fontStyle=0;strokeColor=none;fillColor=none;align=left;verticalAlign=top;overflow=hidden;spacingLeft=28;spacingRight=0;rotatable=0;points=[[0,0.5],[1,0.5]];portConstraint=eastwest;imageWidth=16;imageHeight=16;image=data:image/svg+xml,PHN2ZyB4bWxucz0iaHR0cDovL3d3dy53My5vcmcvMjAwMC9zdmciIGhlaWdodD0iNDgiIHdpZHRoPSI0OCIgdmlld0JveD0iMCAwIDQ4IDQ4Ij4KICA8cGF0aCBmaWxsPSJncmVlbiIgZD0iTTI0IDQ0cS00LjE1IDAtNy44LTEuNTc1LTMuNjUtMS41NzUtNi4zNS00LjI3NS0yLjctMi43LTQuMjc1LTYuMzVRNCAyOC4xNSA0IDI0dDEuNTc1LTcuOFE3LjE1IDEyLjU1IDkuODUgOS44NXEyLjctMi43IDYuMzUtNC4yNzVRMTkuODUgNCAyNCA0dDcuOCAxLjU3NXEzLjY1IDEuNTc1IDYuMzUgNC4yNzUgMi43IDIuNyA0LjI3NSA2LjM1UTQ0IDE5Ljg1IDQ0IDI0dC0xLjU3NSA3LjhxLTEuNTc1IDMuNjUtNC4yNzUgNi4zNS0yLjcgMi43LTYuMzUgNC4yNzVRMjguMTUgNDQgMjQgNDRabS0yLjE1LTMuMDV2LTQuMXEtMS43NSAwLTIuOTUtMS4zLTEuMi0xLjMtMS4yLTMuMDV2LTIuMkw3LjQ1IDIwLjA1cS0uMjUgMS0uMzUgMS45NzVRNyAyMyA3IDI0cTAgNi41IDQuMjI1IDExLjM1dDEwLjYyNSA1LjZabTE0LjctNS40cTEuMS0xLjIgMS45MjUtMi41NS44MjUtMS4zNSAxLjQtMi44MjV0Ljg1LTMuMDI1UTQxIDI1LjYgNDEgMjRxMC01LjMtMi45LTkuNjI1VDMwLjM1IDguMDV2LjlxMCAxLjc1LTEuMiAzLjA1LTEuMiAxLjMtMi45NSAxLjNoLTQuMzV2NC4zNXEwIC44NS0uNjc1IDEuNC0uNjc1LjU1LTEuNTI1LjU1SDE1LjVWMjRoMTIuOXEuODUgMCAxLjQuNjUuNTUuNjUuNTUgMS41djYuMzVoMi4xNXExLjQ1IDAgMi41NS44NSAxLjEuODUgMS41IDIuMloiLz4KPC9zdmc+;rounded=1;shadow=0;glass=0;rotation=0;imageVerticalAlign=middle;autosize=0;spacing=0;spacingTop=0;spacingBottom=0;" parent="2" vertex="1">
                    <mxGeometry y="290" width="520" height="20" as="geometry"/>
                </mxCell>
                <mxCell id="53" value="JCA::FNC::Parent" style="swimlane;fontStyle=1;align=center;verticalAlign=top;childLayout=stackLayout;horizontal=1;startSize=26;horizontalStack=0;resizeParent=1;resizeParentMax=0;resizeLast=0;collapsible=1;marginBottom=0;" parent="1" vertex="1">
                    <mxGeometry x="189" y="590" width="450" height="270" as="geometry">
                        <mxRectangle x="80" y="80" width="100" height="26" as="alternateBounds"/>
                    </mxGeometry>
                </mxCell>
                <mxCell id="54" value="Tags : std::vector&lt;FunctionTags*&gt;" style="label;fontStyle=0;strokeColor=#82b366;fillColor=#d5e8d4;align=left;verticalAlign=middle;overflow=hidden;spacingLeft=28;spacingRight=4;rotatable=0;points=[[0,0.5],[1,0.5]];portConstraint=eastwest;imageWidth=16;imageHeight=16;image=data:image/svg+xml,PHN2ZyB4bWxucz0iaHR0cDovL3d3dy53My5vcmcvMjAwMC9zdmciIGhlaWdodD0iNDgiIHdpZHRoPSI0OCIgdmlld0JveD0iMCAwIDQ4IDQ4Ij4KICA8cGF0aCBmaWxsPSJncmVlbiIgZD0iTTI0IDQzLjk1cS03LTEuNzUtMTEuNS04LjEyNVQ4IDIxLjg1VjkuOTVsMTYtNiAxNiA2djExLjlxMCA3LjYtNC41IDEzLjk3NVQyNCA0My45NVptMC0zLjFxNS43NS0xLjkgOS4zNzUtNy4xNzVUMzcgMjEuODV2LTkuOGwtMTMtNC45LTEzIDQuOXY5LjhxMCA2LjU1IDMuNjI1IDExLjgyNVExOC4yNSAzOC45NSAyNCA0MC44NVpNMjQgMjRaIi8+Cjwvc3ZnPg==;rounded=1;shadow=0;glass=0;autosize=0;imageVerticalAlign=middle;spacing=0;spacingBottom=0;" parent="53" vertex="1">
                    <mxGeometry y="26" width="450" height="20" as="geometry"/>
                </mxCell>
                <mxCell id="227" value="writeFunctionTags (File _FuncFile, FuncTagUsage_T _Filter, bool &amp;_Init) : void" style="label;fontStyle=0;strokeColor=#82b366;fillColor=#d5e8d4;align=left;verticalAlign=middle;overflow=hidden;spacingLeft=28;spacingRight=0;rotatable=0;points=[[0,0.5],[1,0.5]];portConstraint=eastwest;imageWidth=16;imageHeight=16;image=data:image/svg+xml,PHN2ZyB4bWxucz0iaHR0cDovL3d3dy53My5vcmcvMjAwMC9zdmciIGhlaWdodD0iNDgiIHdpZHRoPSI0OCIgdmlld0JveD0iMCAwIDQ4IDQ4Ij4KICA8cGF0aCBmaWxsPSJncmVlbiIgZD0iTTI0IDQ0cS00LjE1IDAtNy44LTEuNTc1LTMuNjUtMS41NzUtNi4zNS00LjI3NS0yLjctMi43LTQuMjc1LTYuMzVRNCAyOC4xNSA0IDI0dDEuNTc1LTcuOFE3LjE1IDEyLjU1IDkuODUgOS44NXEyLjctMi43IDYuMzUtNC4yNzVRMTkuODUgNCAyNCA0dDcuOCAxLjU3NXEzLjY1IDEuNTc1IDYuMzUgNC4yNzUgMi43IDIuNyA0LjI3NSA2LjM1UTQ0IDE5Ljg1IDQ0IDI0dC0xLjU3NSA3LjhxLTEuNTc1IDMuNjUtNC4yNzUgNi4zNS0yLjcgMi43LTYuMzUgNC4yNzVRMjguMTUgNDQgMjQgNDRabS0yLjE1LTMuMDV2LTQuMXEtMS43NSAwLTIuOTUtMS4zLTEuMi0xLjMtMS4yLTMuMDV2LTIuMkw3LjQ1IDIwLjA1cS0uMjUgMS0uMzUgMS45NzVRNyAyMyA3IDI0cTAgNi41IDQuMjI1IDExLjM1dDEwLjYyNSA1LjZabTE0LjctNS40cTEuMS0xLjIgMS45MjUtMi41NS44MjUtMS4zNSAxLjQtMi44MjV0Ljg1LTMuMDI1UTQxIDI1LjYgNDEgMjRxMC01LjMtMi45LTkuNjI1VDMwLjM1IDguMDV2LjlxMCAxLjc1LTEuMiAzLjA1LTEuMiAxLjMtMi45NSAxLjNoLTQuMzV2NC4zNXEwIC44NS0uNjc1IDEuNC0uNjc1LjU1LTEuNTI1LjU1SDE1LjVWMjRoMTIuOXEuODUgMCAxLjQuNjUuNTUuNjUuNTUgMS41djYuMzVoMi4xNXExLjQ1IDAgMi41NS44NSAxLjEuODUgMS41IDIuMloiLz4KPC9zdmc+;rounded=1;shadow=0;glass=0;rotation=0;imageVerticalAlign=middle;autosize=0;spacing=0;spacingTop=0;spacingBottom=0;" parent="53" vertex="1">
                    <mxGeometry y="46" width="450" height="20" as="geometry"/>
                </mxCell>
                <mxCell id="56" value="" style="line;strokeWidth=1;fillColor=none;align=left;verticalAlign=middle;spacingTop=-1;spacingLeft=3;spacingRight=3;rotatable=0;labelPosition=right;points=[];portConstraint=eastwest;rounded=1;shadow=0;glass=0;" parent="53" vertex="1">
                    <mxGeometry y="66" width="450" height="4" as="geometry"/>
                </mxCell>
                <mxCell id="57" value="Parent (String _Name)" style="text;strokeColor=#82b366;fillColor=#d5e8d4;align=left;verticalAlign=middle;spacingLeft=4;spacingRight=4;overflow=hidden;rotatable=0;points=[[0,0.5],[1,0.5]];portConstraint=eastwest;rounded=1;shadow=0;glass=0;" parent="53" vertex="1">
                    <mxGeometry y="70" width="450" height="20" as="geometry"/>
                </mxCell>
                <mxCell id="224" value="STATIC define (FuncHandler &amp;_Handler) : void" style="label;fontStyle=0;strokeColor=#d79b00;fillColor=#ffe6cc;align=left;verticalAlign=top;overflow=hidden;spacingLeft=28;spacingRight=0;rotatable=0;points=[[0,0.5],[1,0.5]];portConstraint=eastwest;imageWidth=16;imageHeight=16;image=data:image/svg+xml,PHN2ZyB4bWxucz0iaHR0cDovL3d3dy53My5vcmcvMjAwMC9zdmciIGhlaWdodD0iNDgiIHdpZHRoPSI0OCIgdmlld0JveD0iMCAwIDQ4IDQ4Ij4KICA8cGF0aCBmaWxsPSJncmF5IiBkPSJNMjQgNDRxLTQuMTUgMC03LjgtMS41NzUtMy42NS0xLjU3NS02LjM1LTQuMjc1LTIuNy0yLjctNC4yNzUtNi4zNVE0IDI4LjE1IDQgMjR0MS41NzUtNy44UTcuMTUgMTIuNTUgOS44NSA5Ljg1cTIuNy0yLjcgNi4zNS00LjI3NVExOS44NSA0IDI0IDR0Ny44IDEuNTc1cTMuNjUgMS41NzUgNi4zNSA0LjI3NSAyLjcgMi43IDQuMjc1IDYuMzVRNDQgMTkuODUgNDQgMjR0LTEuNTc1IDcuOHEtMS41NzUgMy42NS00LjI3NSA2LjM1LTIuNyAyLjctNi4zNSA0LjI3NVEyOC4xNSA0NCAyNCA0NFptLTIuMTUtMy4wNXYtNC4xcS0xLjc1IDAtMi45NS0xLjMtMS4yLTEuMy0xLjItMy4wNXYtMi4yTDcuNDUgMjAuMDVxLS4yNSAxLS4zNSAxLjk3NVE3IDIzIDcgMjRxMCA2LjUgNC4yMjUgMTEuMzV0MTAuNjI1IDUuNlptMTQuNy01LjRxMS4xLTEuMiAxLjkyNS0yLjU1LjgyNS0xLjM1IDEuNC0yLjgyNXQuODUtMy4wMjVRNDEgMjUuNiA0MSAyNHEwLTUuMy0yLjktOS42MjVUMzAuMzUgOC4wNXYuOXEwIDEuNzUtMS4yIDMuMDUtMS4yIDEuMy0yLjk1IDEuM2gtNC4zNXY0LjM1cTAgLjg1LS42NzUgMS40LS42NzUuNTUtMS41MjUuNTVIMTUuNVYyNGgxMi45cS44NSAwIDEuNC42NS41NS42NS41NSAxLjV2Ni4zNWgyLjE1cTEuNDUgMCAyLjU1Ljg1IDEuMS44NSAxLjUgMi4yWiIvPgo8L3N2Zz4=;rounded=1;shadow=0;glass=0;rotation=0;imageVerticalAlign=middle;autosize=0;spacing=0;spacingTop=0;spacingBottom=0;" parent="53" vertex="1">
                    <mxGeometry y="90" width="450" height="20" as="geometry"/>
                </mxCell>
                <mxCell id="226" value="STATIC create (JsonObject _Setup, std::vector&lt;Parent*&gt;&amp; _Functions) : bool" style="label;fontStyle=0;strokeColor=#d79b00;fillColor=#ffe6cc;align=left;verticalAlign=top;overflow=hidden;spacingLeft=28;spacingRight=0;rotatable=0;points=[[0,0.5],[1,0.5]];portConstraint=eastwest;imageWidth=16;imageHeight=16;image=data:image/svg+xml,PHN2ZyB4bWxucz0iaHR0cDovL3d3dy53My5vcmcvMjAwMC9zdmciIGhlaWdodD0iNDgiIHdpZHRoPSI0OCIgdmlld0JveD0iMCAwIDQ4IDQ4Ij4KICA8cGF0aCBmaWxsPSJncmF5IiBkPSJNMjQgNDRxLTQuMTUgMC03LjgtMS41NzUtMy42NS0xLjU3NS02LjM1LTQuMjc1LTIuNy0yLjctNC4yNzUtNi4zNVE0IDI4LjE1IDQgMjR0MS41NzUtNy44UTcuMTUgMTIuNTUgOS44NSA5Ljg1cTIuNy0yLjcgNi4zNS00LjI3NVExOS44NSA0IDI0IDR0Ny44IDEuNTc1cTMuNjUgMS41NzUgNi4zNSA0LjI3NSAyLjcgMi43IDQuMjc1IDYuMzVRNDQgMTkuODUgNDQgMjR0LTEuNTc1IDcuOHEtMS41NzUgMy42NS00LjI3NSA2LjM1LTIuNyAyLjctNi4zNSA0LjI3NVEyOC4xNSA0NCAyNCA0NFptLTIuMTUtMy4wNXYtNC4xcS0xLjc1IDAtMi45NS0xLjMtMS4yLTEuMy0xLjItMy4wNXYtMi4yTDcuNDUgMjAuMDVxLS4yNSAxLS4zNSAxLjk3NVE3IDIzIDcgMjRxMCA2LjUgNC4yMjUgMTEuMzV0MTAuNjI1IDUuNlptMTQuNy01LjRxMS4xLTEuMiAxLjkyNS0yLjU1LjgyNS0xLjM1IDEuNC0yLjgyNXQuODUtMy4wMjVRNDEgMjUuNiA0MSAyNHEwLTUuMy0yLjktOS42MjVUMzAuMzUgOC4wNXYuOXEwIDEuNzUtMS4yIDMuMDUtMS4yIDEuMy0yLjk1IDEuM2gtNC4zNXY0LjM1cTAgLjg1LS42NzUgMS40LS42NzUuNTUtMS41MjUuNTVIMTUuNVYyNGgxMi45cS44NSAwIDEuNC42NS41NS42NS41NSAxLjV2Ni4zNWgyLjE1cTEuNDUgMCAyLjU1Ljg1IDEuMS44NSAxLjUgMi4yWiIvPgo8L3N2Zz4=;rounded=1;shadow=0;glass=0;rotation=0;imageVerticalAlign=middle;autosize=0;spacing=0;spacingTop=0;spacingBottom=0;" parent="53" vertex="1">
                    <mxGeometry y="110" width="450" height="20" as="geometry"/>
                </mxCell>
                <mxCell id="60" value="writeFunction (File _FuncFile, bool &amp;_Init) : void" style="label;fontStyle=0;strokeColor=#82b366;fillColor=#d5e8d4;align=left;verticalAlign=middle;overflow=hidden;spacingLeft=28;spacingRight=0;rotatable=0;points=[[0,0.5],[1,0.5]];portConstraint=eastwest;imageWidth=16;imageHeight=16;image=data:image/svg+xml,PHN2ZyB4bWxucz0iaHR0cDovL3d3dy53My5vcmcvMjAwMC9zdmciIGhlaWdodD0iNDgiIHdpZHRoPSI0OCIgdmlld0JveD0iMCAwIDQ4IDQ4Ij4KICA8cGF0aCBmaWxsPSJncmVlbiIgZD0iTTI0IDQ0cS00LjE1IDAtNy44LTEuNTc1LTMuNjUtMS41NzUtNi4zNS00LjI3NS0yLjctMi43LTQuMjc1LTYuMzVRNCAyOC4xNSA0IDI0dDEuNTc1LTcuOFE3LjE1IDEyLjU1IDkuODUgOS44NXEyLjctMi43IDYuMzUtNC4yNzVRMTkuODUgNCAyNCA0dDcuOCAxLjU3NXEzLjY1IDEuNTc1IDYuMzUgNC4yNzUgMi43IDIuNyA0LjI3NSA2LjM1UTQ0IDE5Ljg1IDQ0IDI0dC0xLjU3NSA3LjhxLTEuNTc1IDMuNjUtNC4yNzUgNi4zNS0yLjcgMi43LTYuMzUgNC4yNzVRMjguMTUgNDQgMjQgNDRabS0yLjE1LTMuMDV2LTQuMXEtMS43NSAwLTIuOTUtMS4zLTEuMi0xLjMtMS4yLTMuMDV2LTIuMkw3LjQ1IDIwLjA1cS0uMjUgMS0uMzUgMS45NzVRNyAyMyA3IDI0cTAgNi41IDQuMjI1IDExLjM1dDEwLjYyNSA1LjZabTE0LjctNS40cTEuMS0xLjIgMS45MjUtMi41NS44MjUtMS4zNSAxLjQtMi44MjV0Ljg1LTMuMDI1UTQxIDI1LjYgNDEgMjRxMC01LjMtMi45LTkuNjI1VDMwLjM1IDguMDV2LjlxMCAxLjc1LTEuMiAzLjA1LTEuMiAxLjMtMi45NSAxLjNoLTQuMzV2NC4zNXEwIC44NS0uNjc1IDEuNC0uNjc1LjU1LTEuNTI1LjU1SDE1LjVWMjRoMTIuOXEuODUgMCAxLjQuNjUuNTUuNjUuNTUgMS41djYuMzVoMi4xNXExLjQ1IDAgMi41NS44NSAxLjEuODUgMS41IDIuMloiLz4KPC9zdmc+;rounded=1;shadow=0;glass=0;rotation=0;imageVerticalAlign=middle;autosize=0;spacing=0;spacingTop=0;spacingBottom=0;" parent="53" vertex="1">
                    <mxGeometry y="130" width="450" height="20" as="geometry"/>
                </mxCell>
                <mxCell id="59" value="update (struct tm &amp;_Time) : void" style="label;fontStyle=0;strokeColor=#6c8ebf;fillColor=#dae8fc;align=left;verticalAlign=middle;overflow=hidden;spacingLeft=28;spacingRight=0;rotatable=0;points=[[0,0.5],[1,0.5]];portConstraint=eastwest;imageWidth=16;imageHeight=16;image=data:image/svg+xml,PHN2ZyB4bWxucz0iaHR0cDovL3d3dy53My5vcmcvMjAwMC9zdmciIGhlaWdodD0iNDgiIHdpZHRoPSI0OCIgdmlld0JveD0iMCAwIDQ4IDQ4Ij4KICA8cGF0aCBmaWxsPSJncmVlbiIgZD0iTTI0IDQ0cS00LjE1IDAtNy44LTEuNTc1LTMuNjUtMS41NzUtNi4zNS00LjI3NS0yLjctMi43LTQuMjc1LTYuMzVRNCAyOC4xNSA0IDI0dDEuNTc1LTcuOFE3LjE1IDEyLjU1IDkuODUgOS44NXEyLjctMi43IDYuMzUtNC4yNzVRMTkuODUgNCAyNCA0dDcuOCAxLjU3NXEzLjY1IDEuNTc1IDYuMzUgNC4yNzUgMi43IDIuNyA0LjI3NSA2LjM1UTQ0IDE5Ljg1IDQ0IDI0dC0xLjU3NSA3LjhxLTEuNTc1IDMuNjUtNC4yNzUgNi4zNS0yLjcgMi43LTYuMzUgNC4yNzVRMjguMTUgNDQgMjQgNDRabS0yLjE1LTMuMDV2LTQuMXEtMS43NSAwLTIuOTUtMS4zLTEuMi0xLjMtMS4yLTMuMDV2LTIuMkw3LjQ1IDIwLjA1cS0uMjUgMS0uMzUgMS45NzVRNyAyMyA3IDI0cTAgNi41IDQuMjI1IDExLjM1dDEwLjYyNSA1LjZabTE0LjctNS40cTEuMS0xLjIgMS45MjUtMi41NS44MjUtMS4zNSAxLjQtMi44MjV0Ljg1LTMuMDI1UTQxIDI1LjYgNDEgMjRxMC01LjMtMi45LTkuNjI1VDMwLjM1IDguMDV2LjlxMCAxLjc1LTEuMiAzLjA1LTEuMiAxLjMtMi45NSAxLjNoLTQuMzV2NC4zNXEwIC44NS0uNjc1IDEuNC0uNjc1LjU1LTEuNTI1LjU1SDE1LjVWMjRoMTIuOXEuODUgMCAxLjQuNjUuNTUuNjUuNTUgMS41djYuMzVoMi4xNXExLjQ1IDAgMi41NS44NSAxLjEuODUgMS41IDIuMloiLz4KPC9zdmc+;rounded=1;shadow=0;glass=0;rotation=0;imageVerticalAlign=middle;autosize=0;spacing=0;spacingTop=0;spacingBottom=0;" parent="53" vertex="1">
                    <mxGeometry y="150" width="450" height="20" as="geometry"/>
                </mxCell>
                <mxCell id="230" style="edgeStyle=orthogonalEdgeStyle;html=1;exitX=1;exitY=0.5;exitDx=0;exitDy=0;fontSize=17;fontColor=#FFFFFF;startArrow=classic;startFill=1;entryX=0;entryY=0.5;entryDx=0;entryDy=0;" parent="53" source="60" target="227" edge="1">
                    <mxGeometry relative="1" as="geometry">
                        <mxPoint x="560" y="-30" as="targetPoint"/>
                        <Array as="points">
                            <mxPoint x="480" y="140"/>
                            <mxPoint x="480" y="-30"/>
                            <mxPoint x="-30" y="-30"/>
                            <mxPoint x="-30" y="56"/>
                        </Array>
                    </mxGeometry>
                </mxCell>
                <mxCell id="61" value="setValues (JsonObject &amp;_Function) : void  // sucht im Tags-Vector" style="label;fontStyle=0;strokeColor=#82b366;fillColor=#d5e8d4;align=left;verticalAlign=middle;overflow=hidden;spacingLeft=28;spacingRight=0;rotatable=0;points=[[0,0.5],[1,0.5]];portConstraint=eastwest;imageWidth=16;imageHeight=16;image=data:image/svg+xml,PHN2ZyB4bWxucz0iaHR0cDovL3d3dy53My5vcmcvMjAwMC9zdmciIGhlaWdodD0iNDgiIHdpZHRoPSI0OCIgdmlld0JveD0iMCAwIDQ4IDQ4Ij4KICA8cGF0aCBmaWxsPSJncmVlbiIgZD0iTTI0IDQ0cS00LjE1IDAtNy44LTEuNTc1LTMuNjUtMS41NzUtNi4zNS00LjI3NS0yLjctMi43LTQuMjc1LTYuMzVRNCAyOC4xNSA0IDI0dDEuNTc1LTcuOFE3LjE1IDEyLjU1IDkuODUgOS44NXEyLjctMi43IDYuMzUtNC4yNzVRMTkuODUgNCAyNCA0dDcuOCAxLjU3NXEzLjY1IDEuNTc1IDYuMzUgNC4yNzUgMi43IDIuNyA0LjI3NSA2LjM1UTQ0IDE5Ljg1IDQ0IDI0dC0xLjU3NSA3LjhxLTEuNTc1IDMuNjUtNC4yNzUgNi4zNS0yLjcgMi43LTYuMzUgNC4yNzVRMjguMTUgNDQgMjQgNDRabS0yLjE1LTMuMDV2LTQuMXEtMS43NSAwLTIuOTUtMS4zLTEuMi0xLjMtMS4yLTMuMDV2LTIuMkw3LjQ1IDIwLjA1cS0uMjUgMS0uMzUgMS45NzVRNyAyMyA3IDI0cTAgNi41IDQuMjI1IDExLjM1dDEwLjYyNSA1LjZabTE0LjctNS40cTEuMS0xLjIgMS45MjUtMi41NS44MjUtMS4zNSAxLjQtMi44MjV0Ljg1LTMuMDI1UTQxIDI1LjYgNDEgMjRxMC01LjMtMi45LTkuNjI1VDMwLjM1IDguMDV2LjlxMCAxLjc1LTEuMiAzLjA1LTEuMiAxLjMtMi45NSAxLjNoLTQuMzV2NC4zNXEwIC44NS0uNjc1IDEuNC0uNjc1LjU1LTEuNTI1LjU1SDE1LjVWMjRoMTIuOXEuODUgMCAxLjQuNjUuNTUuNjUuNTUgMS41djYuMzVoMi4xNXExLjQ1IDAgMi41NS44NSAxLjEuODUgMS41IDIuMloiLz4KPC9zdmc+;rounded=1;shadow=0;glass=0;rotation=0;imageVerticalAlign=middle;autosize=0;spacing=0;spacingTop=0;spacingBottom=0;" parent="53" vertex="1">
                    <mxGeometry y="170" width="450" height="20" as="geometry"/>
                </mxCell>
                <mxCell id="233" value="addValues (JsonObject &amp;_Functions) : void  // loop den Tags-Vector" style="label;fontStyle=0;strokeColor=#82b366;fillColor=#d5e8d4;align=left;verticalAlign=middle;overflow=hidden;spacingLeft=28;spacingRight=0;rotatable=0;points=[[0,0.5],[1,0.5]];portConstraint=eastwest;imageWidth=16;imageHeight=16;image=data:image/svg+xml,PHN2ZyB4bWxucz0iaHR0cDovL3d3dy53My5vcmcvMjAwMC9zdmciIGhlaWdodD0iNDgiIHdpZHRoPSI0OCIgdmlld0JveD0iMCAwIDQ4IDQ4Ij4KICA8cGF0aCBmaWxsPSJncmVlbiIgZD0iTTI0IDQ0cS00LjE1IDAtNy44LTEuNTc1LTMuNjUtMS41NzUtNi4zNS00LjI3NS0yLjctMi43LTQuMjc1LTYuMzVRNCAyOC4xNSA0IDI0dDEuNTc1LTcuOFE3LjE1IDEyLjU1IDkuODUgOS44NXEyLjctMi43IDYuMzUtNC4yNzVRMTkuODUgNCAyNCA0dDcuOCAxLjU3NXEzLjY1IDEuNTc1IDYuMzUgNC4yNzUgMi43IDIuNyA0LjI3NSA2LjM1UTQ0IDE5Ljg1IDQ0IDI0dC0xLjU3NSA3LjhxLTEuNTc1IDMuNjUtNC4yNzUgNi4zNS0yLjcgMi43LTYuMzUgNC4yNzVRMjguMTUgNDQgMjQgNDRabS0yLjE1LTMuMDV2LTQuMXEtMS43NSAwLTIuOTUtMS4zLTEuMi0xLjMtMS4yLTMuMDV2LTIuMkw3LjQ1IDIwLjA1cS0uMjUgMS0uMzUgMS45NzVRNyAyMyA3IDI0cTAgNi41IDQuMjI1IDExLjM1dDEwLjYyNSA1LjZabTE0LjctNS40cTEuMS0xLjIgMS45MjUtMi41NS44MjUtMS4zNSAxLjQtMi44MjV0Ljg1LTMuMDI1UTQxIDI1LjYgNDEgMjRxMC01LjMtMi45LTkuNjI1VDMwLjM1IDguMDV2LjlxMCAxLjc1LTEuMiAzLjA1LTEuMiAxLjMtMi45NSAxLjNoLTQuMzV2NC4zNXEwIC44NS0uNjc1IDEuNC0uNjc1LjU1LTEuNTI1LjU1SDE1LjVWMjRoMTIuOXEuODUgMCAxLjQuNjUuNTUuNjUuNTUgMS41djYuMzVoMi4xNXExLjQ1IDAgMi41NS44NSAxLjEuODUgMS41IDIuMloiLz4KPC9zdmc+;rounded=1;shadow=0;glass=0;rotation=0;imageVerticalAlign=middle;autosize=0;spacing=0;spacingTop=0;spacingBottom=0;" parent="53" vertex="1">
                    <mxGeometry y="190" width="450" height="20" as="geometry"/>
                </mxCell>
                <mxCell id="250" value="getTagIndex (String_Name) : int16_t // sucht die Pos. des tags in der Funktion" style="label;fontStyle=0;strokeColor=#82b366;fillColor=#d5e8d4;align=left;verticalAlign=middle;overflow=hidden;spacingLeft=28;spacingRight=0;rotatable=0;points=[[0,0.5],[1,0.5]];portConstraint=eastwest;imageWidth=16;imageHeight=16;image=data:image/svg+xml,PHN2ZyB4bWxucz0iaHR0cDovL3d3dy53My5vcmcvMjAwMC9zdmciIGhlaWdodD0iNDgiIHdpZHRoPSI0OCIgdmlld0JveD0iMCAwIDQ4IDQ4Ij4KICA8cGF0aCBmaWxsPSJncmVlbiIgZD0iTTI0IDQ0cS00LjE1IDAtNy44LTEuNTc1LTMuNjUtMS41NzUtNi4zNS00LjI3NS0yLjctMi43LTQuMjc1LTYuMzVRNCAyOC4xNSA0IDI0dDEuNTc1LTcuOFE3LjE1IDEyLjU1IDkuODUgOS44NXEyLjctMi43IDYuMzUtNC4yNzVRMTkuODUgNCAyNCA0dDcuOCAxLjU3NXEzLjY1IDEuNTc1IDYuMzUgNC4yNzUgMi43IDIuNyA0LjI3NSA2LjM1UTQ0IDE5Ljg1IDQ0IDI0dC0xLjU3NSA3LjhxLTEuNTc1IDMuNjUtNC4yNzUgNi4zNS0yLjcgMi43LTYuMzUgNC4yNzVRMjguMTUgNDQgMjQgNDRabS0yLjE1LTMuMDV2LTQuMXEtMS43NSAwLTIuOTUtMS4zLTEuMi0xLjMtMS4yLTMuMDV2LTIuMkw3LjQ1IDIwLjA1cS0uMjUgMS0uMzUgMS45NzVRNyAyMyA3IDI0cTAgNi41IDQuMjI1IDExLjM1dDEwLjYyNSA1LjZabTE0LjctNS40cTEuMS0xLjIgMS45MjUtMi41NS44MjUtMS4zNSAxLjQtMi44MjV0Ljg1LTMuMDI1UTQxIDI1LjYgNDEgMjRxMC01LjMtMi45LTkuNjI1VDMwLjM1IDguMDV2LjlxMCAxLjc1LTEuMiAzLjA1LTEuMiAxLjMtMi45NSAxLjNoLTQuMzV2NC4zNXEwIC44NS0uNjc1IDEuNC0uNjc1LjU1LTEuNTI1LjU1SDE1LjVWMjRoMTIuOXEuODUgMCAxLjQuNjUuNTUuNjUuNTUgMS41djYuMzVoMi4xNXExLjQ1IDAgMi41NS44NSAxLjEuODUgMS41IDIuMloiLz4KPC9zdmc+;rounded=1;shadow=0;glass=0;rotation=0;imageVerticalAlign=middle;autosize=0;spacing=0;spacingTop=0;spacingBottom=0;" vertex="1" parent="53">
                    <mxGeometry y="210" width="450" height="20" as="geometry"/>
                </mxCell>
                <mxCell id="251" value="setTagValueByIndex (int16_t _Index, JsonVariant _Value) : bool" style="label;fontStyle=0;strokeColor=#82b366;fillColor=#d5e8d4;align=left;verticalAlign=middle;overflow=hidden;spacingLeft=28;spacingRight=0;rotatable=0;points=[[0,0.5],[1,0.5]];portConstraint=eastwest;imageWidth=16;imageHeight=16;image=data:image/svg+xml,PHN2ZyB4bWxucz0iaHR0cDovL3d3dy53My5vcmcvMjAwMC9zdmciIGhlaWdodD0iNDgiIHdpZHRoPSI0OCIgdmlld0JveD0iMCAwIDQ4IDQ4Ij4KICA8cGF0aCBmaWxsPSJncmVlbiIgZD0iTTI0IDQ0cS00LjE1IDAtNy44LTEuNTc1LTMuNjUtMS41NzUtNi4zNS00LjI3NS0yLjctMi43LTQuMjc1LTYuMzVRNCAyOC4xNSA0IDI0dDEuNTc1LTcuOFE3LjE1IDEyLjU1IDkuODUgOS44NXEyLjctMi43IDYuMzUtNC4yNzVRMTkuODUgNCAyNCA0dDcuOCAxLjU3NXEzLjY1IDEuNTc1IDYuMzUgNC4yNzUgMi43IDIuNyA0LjI3NSA2LjM1UTQ0IDE5Ljg1IDQ0IDI0dC0xLjU3NSA3LjhxLTEuNTc1IDMuNjUtNC4yNzUgNi4zNS0yLjcgMi43LTYuMzUgNC4yNzVRMjguMTUgNDQgMjQgNDRabS0yLjE1LTMuMDV2LTQuMXEtMS43NSAwLTIuOTUtMS4zLTEuMi0xLjMtMS4yLTMuMDV2LTIuMkw3LjQ1IDIwLjA1cS0uMjUgMS0uMzUgMS45NzVRNyAyMyA3IDI0cTAgNi41IDQuMjI1IDExLjM1dDEwLjYyNSA1LjZabTE0LjctNS40cTEuMS0xLjIgMS45MjUtMi41NS44MjUtMS4zNSAxLjQtMi44MjV0Ljg1LTMuMDI1UTQxIDI1LjYgNDEgMjRxMC01LjMtMi45LTkuNjI1VDMwLjM1IDguMDV2LjlxMCAxLjc1LTEuMiAzLjA1LTEuMiAxLjMtMi45NSAxLjNoLTQuMzV2NC4zNXEwIC44NS0uNjc1IDEuNC0uNjc1LjU1LTEuNTI1LjU1SDE1LjVWMjRoMTIuOXEuODUgMCAxLjQuNjUuNTUuNjUuNTUgMS41djYuMzVoMi4xNXExLjQ1IDAgMi41NS44NSAxLjEuODUgMS41IDIuMloiLz4KPC9zdmc+;rounded=1;shadow=0;glass=0;rotation=0;imageVerticalAlign=middle;autosize=0;spacing=0;spacingTop=0;spacingBottom=0;" vertex="1" parent="53">
                    <mxGeometry y="230" width="450" height="20" as="geometry"/>
                </mxCell>
                <mxCell id="252" value="getTagValueByIndex (int16_t _Index, JsonVariant _Value) : bool" style="label;fontStyle=0;strokeColor=#82b366;fillColor=#d5e8d4;align=left;verticalAlign=middle;overflow=hidden;spacingLeft=28;spacingRight=0;rotatable=0;points=[[0,0.5],[1,0.5]];portConstraint=eastwest;imageWidth=16;imageHeight=16;image=data:image/svg+xml,PHN2ZyB4bWxucz0iaHR0cDovL3d3dy53My5vcmcvMjAwMC9zdmciIGhlaWdodD0iNDgiIHdpZHRoPSI0OCIgdmlld0JveD0iMCAwIDQ4IDQ4Ij4KICA8cGF0aCBmaWxsPSJncmVlbiIgZD0iTTI0IDQ0cS00LjE1IDAtNy44LTEuNTc1LTMuNjUtMS41NzUtNi4zNS00LjI3NS0yLjctMi43LTQuMjc1LTYuMzVRNCAyOC4xNSA0IDI0dDEuNTc1LTcuOFE3LjE1IDEyLjU1IDkuODUgOS44NXEyLjctMi43IDYuMzUtNC4yNzVRMTkuODUgNCAyNCA0dDcuOCAxLjU3NXEzLjY1IDEuNTc1IDYuMzUgNC4yNzUgMi43IDIuNyA0LjI3NSA2LjM1UTQ0IDE5Ljg1IDQ0IDI0dC0xLjU3NSA3LjhxLTEuNTc1IDMuNjUtNC4yNzUgNi4zNS0yLjcgMi43LTYuMzUgNC4yNzVRMjguMTUgNDQgMjQgNDRabS0yLjE1LTMuMDV2LTQuMXEtMS43NSAwLTIuOTUtMS4zLTEuMi0xLjMtMS4yLTMuMDV2LTIuMkw3LjQ1IDIwLjA1cS0uMjUgMS0uMzUgMS45NzVRNyAyMyA3IDI0cTAgNi41IDQuMjI1IDExLjM1dDEwLjYyNSA1LjZabTE0LjctNS40cTEuMS0xLjIgMS45MjUtMi41NS44MjUtMS4zNSAxLjQtMi44MjV0Ljg1LTMuMDI1UTQxIDI1LjYgNDEgMjRxMC01LjMtMi45LTkuNjI1VDMwLjM1IDguMDV2LjlxMCAxLjc1LTEuMiAzLjA1LTEuMiAxLjMtMi45NSAxLjNoLTQuMzV2NC4zNXEwIC44NS0uNjc1IDEuNC0uNjc1LjU1LTEuNTI1LjU1SDE1LjVWMjRoMTIuOXEuODUgMCAxLjQuNjUuNTUuNjUuNTUgMS41djYuMzVoMi4xNXExLjQ1IDAgMi41NS44NSAxLjEuODUgMS41IDIuMloiLz4KPC9zdmc+;rounded=1;shadow=0;glass=0;rotation=0;imageVerticalAlign=middle;autosize=0;spacing=0;spacingTop=0;spacingBottom=0;" vertex="1" parent="53">
                    <mxGeometry y="250" width="450" height="20" as="geometry"/>
                </mxCell>
                <mxCell id="73" value="JCA::TAG::Parent" style="swimlane;fontStyle=1;align=center;verticalAlign=top;childLayout=stackLayout;horizontal=1;startSize=26;horizontalStack=0;resizeParent=1;resizeParentMax=0;resizeLast=0;collapsible=1;marginBottom=0;" parent="1" vertex="1">
                    <mxGeometry x="234" y="980" width="360" height="150" as="geometry">
                        <mxRectangle x="80" y="80" width="100" height="26" as="alternateBounds"/>
                    </mxGeometry>
                </mxCell>
                <mxCell id="74" value="writeTagBase() : String" style="label;fontStyle=0;strokeColor=#82b366;fillColor=#d5e8d4;align=left;verticalAlign=middle;overflow=hidden;spacingLeft=28;spacingRight=4;rotatable=0;points=[[0,0.5],[1,0.5]];portConstraint=eastwest;imageWidth=16;imageHeight=16;image=data:image/svg+xml,PHN2ZyB4bWxucz0iaHR0cDovL3d3dy53My5vcmcvMjAwMC9zdmciIGhlaWdodD0iNDgiIHdpZHRoPSI0OCIgdmlld0JveD0iMCAwIDQ4IDQ4Ij4KICA8cGF0aCBmaWxsPSJncmVlbiIgZD0iTTI0IDQzLjk1cS03LTEuNzUtMTEuNS04LjEyNVQ4IDIxLjg1VjkuOTVsMTYtNiAxNiA2djExLjlxMCA3LjYtNC41IDEzLjk3NVQyNCA0My45NVptMC0zLjFxNS43NS0xLjkgOS4zNzUtNy4xNzVUMzcgMjEuODV2LTkuOGwtMTMtNC45LTEzIDQuOXY5LjhxMCA2LjU1IDMuNjI1IDExLjgyNVExOC4yNSAzOC45NSAyNCA0MC44NVpNMjQgMjRaIi8+Cjwvc3ZnPg==;rounded=1;shadow=0;glass=0;autosize=0;imageVerticalAlign=middle;spacing=0;spacingBottom=0;" parent="73" vertex="1">
                    <mxGeometry y="26" width="360" height="20" as="geometry"/>
                </mxCell>
                <mxCell id="75" value="" style="line;strokeWidth=1;fillColor=none;align=left;verticalAlign=middle;spacingTop=-1;spacingLeft=3;spacingRight=3;rotatable=0;labelPosition=right;points=[];portConstraint=eastwest;rounded=1;shadow=0;glass=0;" parent="73" vertex="1">
                    <mxGeometry y="46" width="360" height="4" as="geometry"/>
                </mxCell>
                <mxCell id="242" value="Parent (String _Name, ...)" style="text;strokeColor=#82b366;fillColor=#d5e8d4;align=left;verticalAlign=middle;spacingLeft=4;spacingRight=4;overflow=hidden;rotatable=0;points=[[0,0.5],[1,0.5]];portConstraint=eastwest;rounded=1;shadow=0;glass=0;" parent="73" vertex="1">
                    <mxGeometry y="50" width="360" height="20" as="geometry"/>
                </mxCell>
                <mxCell id="247" style="edgeStyle=orthogonalEdgeStyle;html=1;exitX=1;exitY=0.5;exitDx=0;exitDy=0;entryX=0;entryY=0.5;entryDx=0;entryDy=0;fontSize=17;fontColor=#FFFFFF;startArrow=classic;startFill=1;" parent="73" source="77" target="74" edge="1">
                    <mxGeometry relative="1" as="geometry">
                        <Array as="points">
                            <mxPoint x="386" y="80"/>
                            <mxPoint x="386" y="-30"/>
                            <mxPoint x="-24" y="-30"/>
                            <mxPoint x="-24" y="36"/>
                        </Array>
                    </mxGeometry>
                </mxCell>
                <mxCell id="77" value="writeTag() : String" style="label;fontStyle=0;strokeColor=#6c8ebf;fillColor=#dae8fc;align=left;verticalAlign=middle;overflow=hidden;spacingLeft=28;spacingRight=0;rotatable=0;points=[[0,0.5],[1,0.5]];portConstraint=eastwest;imageWidth=16;imageHeight=16;image=data:image/svg+xml,PHN2ZyB4bWxucz0iaHR0cDovL3d3dy53My5vcmcvMjAwMC9zdmciIGhlaWdodD0iNDgiIHdpZHRoPSI0OCIgdmlld0JveD0iMCAwIDQ4IDQ4Ij4KICA8cGF0aCBmaWxsPSJncmVlbiIgZD0iTTI0IDQ0cS00LjE1IDAtNy44LTEuNTc1LTMuNjUtMS41NzUtNi4zNS00LjI3NS0yLjctMi43LTQuMjc1LTYuMzVRNCAyOC4xNSA0IDI0dDEuNTc1LTcuOFE3LjE1IDEyLjU1IDkuODUgOS44NXEyLjctMi43IDYuMzUtNC4yNzVRMTkuODUgNCAyNCA0dDcuOCAxLjU3NXEzLjY1IDEuNTc1IDYuMzUgNC4yNzUgMi43IDIuNyA0LjI3NSA2LjM1UTQ0IDE5Ljg1IDQ0IDI0dC0xLjU3NSA3LjhxLTEuNTc1IDMuNjUtNC4yNzUgNi4zNS0yLjcgMi43LTYuMzUgNC4yNzVRMjguMTUgNDQgMjQgNDRabS0yLjE1LTMuMDV2LTQuMXEtMS43NSAwLTIuOTUtMS4zLTEuMi0xLjMtMS4yLTMuMDV2LTIuMkw3LjQ1IDIwLjA1cS0uMjUgMS0uMzUgMS45NzVRNyAyMyA3IDI0cTAgNi41IDQuMjI1IDExLjM1dDEwLjYyNSA1LjZabTE0LjctNS40cTEuMS0xLjIgMS45MjUtMi41NS44MjUtMS4zNSAxLjQtMi44MjV0Ljg1LTMuMDI1UTQxIDI1LjYgNDEgMjRxMC01LjMtMi45LTkuNjI1VDMwLjM1IDguMDV2LjlxMCAxLjc1LTEuMiAzLjA1LTEuMiAxLjMtMi45NSAxLjNoLTQuMzV2NC4zNXEwIC44NS0uNjc1IDEuNC0uNjc1LjU1LTEuNTI1LjU1SDE1LjVWMjRoMTIuOXEuODUgMCAxLjQuNjUuNTUuNjUuNTUgMS41djYuMzVoMi4xNXExLjQ1IDAgMi41NS44NSAxLjEuODUgMS41IDIuMloiLz4KPC9zdmc+;rounded=1;shadow=0;glass=0;rotation=0;imageVerticalAlign=middle;autosize=0;spacing=0;spacingTop=0;spacingBottom=0;" parent="73" vertex="1">
                    <mxGeometry y="70" width="360" height="20" as="geometry"/>
                </mxCell>
                <mxCell id="243" value="getValue(JsonVariant _Value) : bool" style="label;fontStyle=0;strokeColor=#6c8ebf;fillColor=#dae8fc;align=left;verticalAlign=middle;overflow=hidden;spacingLeft=28;spacingRight=0;rotatable=0;points=[[0,0.5],[1,0.5]];portConstraint=eastwest;imageWidth=16;imageHeight=16;image=data:image/svg+xml,PHN2ZyB4bWxucz0iaHR0cDovL3d3dy53My5vcmcvMjAwMC9zdmciIGhlaWdodD0iNDgiIHdpZHRoPSI0OCIgdmlld0JveD0iMCAwIDQ4IDQ4Ij4KICA8cGF0aCBmaWxsPSJncmVlbiIgZD0iTTI0IDQ0cS00LjE1IDAtNy44LTEuNTc1LTMuNjUtMS41NzUtNi4zNS00LjI3NS0yLjctMi43LTQuMjc1LTYuMzVRNCAyOC4xNSA0IDI0dDEuNTc1LTcuOFE3LjE1IDEyLjU1IDkuODUgOS44NXEyLjctMi43IDYuMzUtNC4yNzVRMTkuODUgNCAyNCA0dDcuOCAxLjU3NXEzLjY1IDEuNTc1IDYuMzUgNC4yNzUgMi43IDIuNyA0LjI3NSA2LjM1UTQ0IDE5Ljg1IDQ0IDI0dC0xLjU3NSA3LjhxLTEuNTc1IDMuNjUtNC4yNzUgNi4zNS0yLjcgMi43LTYuMzUgNC4yNzVRMjguMTUgNDQgMjQgNDRabS0yLjE1LTMuMDV2LTQuMXEtMS43NSAwLTIuOTUtMS4zLTEuMi0xLjMtMS4yLTMuMDV2LTIuMkw3LjQ1IDIwLjA1cS0uMjUgMS0uMzUgMS45NzVRNyAyMyA3IDI0cTAgNi41IDQuMjI1IDExLjM1dDEwLjYyNSA1LjZabTE0LjctNS40cTEuMS0xLjIgMS45MjUtMi41NS44MjUtMS4zNSAxLjQtMi44MjV0Ljg1LTMuMDI1UTQxIDI1LjYgNDEgMjRxMC01LjMtMi45LTkuNjI1VDMwLjM1IDguMDV2LjlxMCAxLjc1LTEuMiAzLjA1LTEuMiAxLjMtMi45NSAxLjNoLTQuMzV2NC4zNXEwIC44NS0uNjc1IDEuNC0uNjc1LjU1LTEuNTI1LjU1SDE1LjVWMjRoMTIuOXEuODUgMCAxLjQuNjUuNTUuNjUuNTUgMS41djYuMzVoMi4xNXExLjQ1IDAgMi41NS44NSAxLjEuODUgMS41IDIuMloiLz4KPC9zdmc+;rounded=1;shadow=0;glass=0;rotation=0;imageVerticalAlign=middle;autosize=0;spacing=0;spacingTop=0;spacingBottom=0;" parent="73" vertex="1">
                    <mxGeometry y="90" width="360" height="20" as="geometry"/>
                </mxCell>
                <mxCell id="244" value="setValue(JsonVariant _Value) : bool" style="label;fontStyle=0;strokeColor=#6c8ebf;fillColor=#dae8fc;align=left;verticalAlign=middle;overflow=hidden;spacingLeft=28;spacingRight=0;rotatable=0;points=[[0,0.5],[1,0.5]];portConstraint=eastwest;imageWidth=16;imageHeight=16;image=data:image/svg+xml,PHN2ZyB4bWxucz0iaHR0cDovL3d3dy53My5vcmcvMjAwMC9zdmciIGhlaWdodD0iNDgiIHdpZHRoPSI0OCIgdmlld0JveD0iMCAwIDQ4IDQ4Ij4KICA8cGF0aCBmaWxsPSJncmVlbiIgZD0iTTI0IDQ0cS00LjE1IDAtNy44LTEuNTc1LTMuNjUtMS41NzUtNi4zNS00LjI3NS0yLjctMi43LTQuMjc1LTYuMzVRNCAyOC4xNSA0IDI0dDEuNTc1LTcuOFE3LjE1IDEyLjU1IDkuODUgOS44NXEyLjctMi43IDYuMzUtNC4yNzVRMTkuODUgNCAyNCA0dDcuOCAxLjU3NXEzLjY1IDEuNTc1IDYuMzUgNC4yNzUgMi43IDIuNyA0LjI3NSA2LjM1UTQ0IDE5Ljg1IDQ0IDI0dC0xLjU3NSA3LjhxLTEuNTc1IDMuNjUtNC4yNzUgNi4zNS0yLjcgMi43LTYuMzUgNC4yNzVRMjguMTUgNDQgMjQgNDRabS0yLjE1LTMuMDV2LTQuMXEtMS43NSAwLTIuOTUtMS4zLTEuMi0xLjMtMS4yLTMuMDV2LTIuMkw3LjQ1IDIwLjA1cS0uMjUgMS0uMzUgMS45NzVRNyAyMyA3IDI0cTAgNi41IDQuMjI1IDExLjM1dDEwLjYyNSA1LjZabTE0LjctNS40cTEuMS0xLjIgMS45MjUtMi41NS44MjUtMS4zNSAxLjQtMi44MjV0Ljg1LTMuMDI1UTQxIDI1LjYgNDEgMjRxMC01LjMtMi45LTkuNjI1VDMwLjM1IDguMDV2LjlxMCAxLjc1LTEuMiAzLjA1LTEuMiAxLjMtMi45NSAxLjNoLTQuMzV2NC4zNXEwIC44NS0uNjc1IDEuNC0uNjc1LjU1LTEuNTI1LjU1SDE1LjVWMjRoMTIuOXEuODUgMCAxLjQuNjUuNTUuNjUuNTUgMS41djYuMzVoMi4xNXExLjQ1IDAgMi41NS44NSAxLjEuODUgMS41IDIuMloiLz4KPC9zdmc+;rounded=1;shadow=0;glass=0;rotation=0;imageVerticalAlign=middle;autosize=0;spacing=0;spacingTop=0;spacingBottom=0;" parent="73" vertex="1">
                    <mxGeometry y="110" width="360" height="20" as="geometry"/>
                </mxCell>
                <mxCell id="245" value="addValue(JsonObject &amp;_Function) : void" style="label;fontStyle=0;strokeColor=#6c8ebf;fillColor=#dae8fc;align=left;verticalAlign=middle;overflow=hidden;spacingLeft=28;spacingRight=0;rotatable=0;points=[[0,0.5],[1,0.5]];portConstraint=eastwest;imageWidth=16;imageHeight=16;image=data:image/svg+xml,PHN2ZyB4bWxucz0iaHR0cDovL3d3dy53My5vcmcvMjAwMC9zdmciIGhlaWdodD0iNDgiIHdpZHRoPSI0OCIgdmlld0JveD0iMCAwIDQ4IDQ4Ij4KICA8cGF0aCBmaWxsPSJncmVlbiIgZD0iTTI0IDQ0cS00LjE1IDAtNy44LTEuNTc1LTMuNjUtMS41NzUtNi4zNS00LjI3NS0yLjctMi43LTQuMjc1LTYuMzVRNCAyOC4xNSA0IDI0dDEuNTc1LTcuOFE3LjE1IDEyLjU1IDkuODUgOS44NXEyLjctMi43IDYuMzUtNC4yNzVRMTkuODUgNCAyNCA0dDcuOCAxLjU3NXEzLjY1IDEuNTc1IDYuMzUgNC4yNzUgMi43IDIuNyA0LjI3NSA2LjM1UTQ0IDE5Ljg1IDQ0IDI0dC0xLjU3NSA3LjhxLTEuNTc1IDMuNjUtNC4yNzUgNi4zNS0yLjcgMi43LTYuMzUgNC4yNzVRMjguMTUgNDQgMjQgNDRabS0yLjE1LTMuMDV2LTQuMXEtMS43NSAwLTIuOTUtMS4zLTEuMi0xLjMtMS4yLTMuMDV2LTIuMkw3LjQ1IDIwLjA1cS0uMjUgMS0uMzUgMS45NzVRNyAyMyA3IDI0cTAgNi41IDQuMjI1IDExLjM1dDEwLjYyNSA1LjZabTE0LjctNS40cTEuMS0xLjIgMS45MjUtMi41NS44MjUtMS4zNSAxLjQtMi44MjV0Ljg1LTMuMDI1UTQxIDI1LjYgNDEgMjRxMC01LjMtMi45LTkuNjI1VDMwLjM1IDguMDV2LjlxMCAxLjc1LTEuMiAzLjA1LTEuMiAxLjMtMi45NSAxLjNoLTQuMzV2NC4zNXEwIC44NS0uNjc1IDEuNC0uNjc1LjU1LTEuNTI1LjU1SDE1LjVWMjRoMTIuOXEuODUgMCAxLjQuNjUuNTUuNjUuNTUgMS41djYuMzVoMi4xNXExLjQ1IDAgMi41NS44NSAxLjEuODUgMS41IDIuMloiLz4KPC9zdmc+;rounded=1;shadow=0;glass=0;rotation=0;imageVerticalAlign=middle;autosize=0;spacing=0;spacingTop=0;spacingBottom=0;" parent="73" vertex="1">
                    <mxGeometry y="130" width="360" height="20" as="geometry"/>
                </mxCell>
                <mxCell id="212" style="edgeStyle=orthogonalEdgeStyle;html=1;exitX=0;exitY=0;exitDx=280;exitDy=285;exitPerimeter=0;fontSize=17;entryX=0;entryY=0.5;entryDx=0;entryDy=0;" parent="1" source="209" target="225" edge="1">
                    <mxGeometry relative="1" as="geometry">
                        <mxPoint x="-310" y="490" as="targetPoint"/>
                        <Array as="points">
                            <mxPoint x="-450" y="315"/>
                            <mxPoint x="-450" y="280"/>
                        </Array>
                    </mxGeometry>
                </mxCell>
                <mxCell id="209" value="&lt;font style=&quot;font-size: 17px;&quot;&gt;usrSetup.json&lt;/font&gt;&lt;br&gt;&lt;br&gt;{&lt;br&gt;&amp;nbsp; hardware : [&lt;br&gt;&amp;nbsp; &amp;nbsp; {&lt;br&gt;&amp;nbsp; &amp;nbsp; &amp;nbsp; type : &quot;Typ der zu erzeugenden Hardware&quot;,&lt;br&gt;&amp;nbsp; &amp;nbsp; &amp;nbsp; name : &quot;Name der Hardware-Instanz&quot;,&lt;br&gt;&amp;nbsp; &amp;nbsp; &amp;nbsp; // Informationen des Creators z.B.:&lt;br&gt;&amp;nbsp; &amp;nbsp; &amp;nbsp; pinNo : 2&lt;br&gt;&amp;nbsp; &amp;nbsp; &amp;nbsp; ...&lt;br&gt;&amp;nbsp; &amp;nbsp; }, {...}&lt;br&gt;&amp;nbsp; ],&lt;br&gt;&amp;nbsp; functions : [&lt;br&gt;&amp;nbsp; &amp;nbsp; {&lt;br&gt;&amp;nbsp; &amp;nbsp; &amp;nbsp; type : &quot;Typ der zu erzeugenden Funktion&quot;,&lt;br&gt;&amp;nbsp; &amp;nbsp; &amp;nbsp; name : &quot;Name der Funktions-Instanz&quot;,&lt;br&gt;&amp;nbsp; &amp;nbsp; &amp;nbsp; // Informationen des Creators z.B.:&lt;br&gt;&amp;nbsp; &amp;nbsp; &amp;nbsp; pinNo : 2&lt;br&gt;&amp;nbsp; &amp;nbsp; }, {...}&lt;br&gt;&amp;nbsp; ],&lt;br&gt;&amp;nbsp; links : [&lt;br&gt;&amp;nbsp; &amp;nbsp; {&lt;br&gt;&amp;nbsp; &amp;nbsp; &amp;nbsp; from : [&lt;br&gt;&amp;nbsp; &amp;nbsp; &amp;nbsp; &amp;nbsp; { &lt;br&gt;&amp;nbsp; &amp;nbsp; &amp;nbsp; &amp;nbsp; &amp;nbsp; func : &quot;Name der Quell-Funktion&quot;,&lt;br&gt;&amp;nbsp; &amp;nbsp; &amp;nbsp; &amp;nbsp; &amp;nbsp; tag : &quot;Name des Quell-Tags in der Funktion&quot;&lt;br&gt;&amp;nbsp; &amp;nbsp; &amp;nbsp; &amp;nbsp; }, {...}&lt;br&gt;&amp;nbsp; &amp;nbsp; &amp;nbsp; ], to : [&lt;br&gt;&amp;nbsp; &amp;nbsp; &amp;nbsp; &amp;nbsp; {&lt;br&gt;&amp;nbsp; &amp;nbsp; &amp;nbsp; &amp;nbsp; &amp;nbsp; func : &quot;Name der Ziel-Funktion&quot;,&lt;br&gt;&amp;nbsp; &amp;nbsp; &amp;nbsp; &amp;nbsp; &amp;nbsp; tag : &quot;Name des Ziel-Tags in der Funktion&quot;&lt;br&gt;&amp;nbsp; &amp;nbsp; &amp;nbsp; &amp;nbsp; }, {...}&lt;br&gt;&amp;nbsp; &amp;nbsp; &amp;nbsp; ],&lt;br&gt;&amp;nbsp; &amp;nbsp; &amp;nbsp; type : &quot;Art der Verknüpfung&quot;&lt;br&gt;&amp;nbsp; &amp;nbsp; }, {...}&lt;br&gt;&amp;nbsp; ]&lt;br&gt;}" style="shape=note;whiteSpace=wrap;html=1;backgroundOutline=1;darkOpacity=0.05;align=left;verticalAlign=top;" parent="1" vertex="1">
                    <mxGeometry x="-760" y="30" width="280" height="550" as="geometry"/>
                </mxCell>
                <mxCell id="210" value="&lt;font style=&quot;font-size: 17px;&quot;&gt;usrFunctions.json&lt;/font&gt;&lt;br&gt;&lt;br&gt;{&lt;br&gt;&amp;nbsp; #Name der Funktions-Instanz# : {&lt;br&gt;&amp;nbsp; &amp;nbsp; config : {&lt;br&gt;&amp;nbsp; &amp;nbsp; &amp;nbsp; // Alle Config-Tags der Funktion&lt;br&gt;&amp;nbsp; &amp;nbsp; &amp;nbsp; #TagName# : {&lt;br&gt;&amp;nbsp; &amp;nbsp; &amp;nbsp; &amp;nbsp; text : &quot;Anzeige Text&quot;,&lt;br&gt;&amp;nbsp; &amp;nbsp; &amp;nbsp; &amp;nbsp; type : x,&lt;br&gt;&amp;nbsp; &amp;nbsp; &amp;nbsp; &amp;nbsp; readOnly : x,&lt;br&gt;&amp;nbsp; &amp;nbsp; &amp;nbsp; &amp;nbsp; ...&lt;br&gt;&amp;nbsp; &amp;nbsp; &amp;nbsp; }, {...}&lt;br&gt;&amp;nbsp; &amp;nbsp; },&lt;br&gt;&amp;nbsp; &amp;nbsp; data : {&lt;br&gt;&amp;nbsp; &amp;nbsp; &amp;nbsp; // Alle Daten-Tags der Funktion&lt;br&gt;&amp;nbsp; &amp;nbsp; &amp;nbsp; #TagName# : {&lt;br&gt;&amp;nbsp; &amp;nbsp; &amp;nbsp; &amp;nbsp; text : &quot;Anzeige Text&quot;,&lt;br&gt;&amp;nbsp; &amp;nbsp; &amp;nbsp; &amp;nbsp; type : x,&lt;br&gt;&amp;nbsp; &amp;nbsp; &amp;nbsp; &amp;nbsp; readOnly : x,&lt;br&gt;&amp;nbsp; &amp;nbsp; &amp;nbsp; &amp;nbsp; ...&lt;br&gt;&amp;nbsp; &amp;nbsp; &amp;nbsp; }, {...}&lt;br&gt;&amp;nbsp; &amp;nbsp; }&lt;br&gt;&amp;nbsp; },&lt;br&gt;&amp;nbsp; #Name der Funktions-Instanz# : {...}&lt;br&gt;}&lt;br&gt;" style="shape=note;whiteSpace=wrap;html=1;backgroundOutline=1;darkOpacity=0.05;align=left;verticalAlign=top;" parent="1" vertex="1">
                    <mxGeometry x="-760" y="600" width="280" height="380" as="geometry"/>
                </mxCell>
                <mxCell id="211" value="&lt;font style=&quot;font-size: 17px;&quot;&gt;usrValues.json&lt;/font&gt;&lt;br&gt;&lt;br&gt;{&lt;br&gt;&amp;nbsp; #Name der Funktions-Instanz# : {&lt;br&gt;&amp;nbsp; &amp;nbsp; #TagName1# : #TagValue1#,&lt;br&gt;&amp;nbsp; &amp;nbsp;&amp;nbsp;#TagName1# : #TagValue1#,&lt;br&gt;&amp;nbsp; &amp;nbsp; ...&lt;br&gt;&amp;nbsp; },&amp;nbsp;&lt;br&gt;&amp;nbsp; #Name der Funktions-Instanz# : {...}&lt;br&gt;}" style="shape=note;whiteSpace=wrap;html=1;backgroundOutline=1;darkOpacity=0.05;align=left;verticalAlign=top;" parent="1" vertex="1">
                    <mxGeometry x="-760" y="1000" width="280" height="160" as="geometry"/>
                </mxCell>
                <mxCell id="217" style="edgeStyle=orthogonalEdgeStyle;html=1;exitX=0;exitY=0.5;exitDx=0;exitDy=0;entryX=0;entryY=0;entryDx=280;entryDy=205;entryPerimeter=0;fontSize=17;" parent="1" source="21" target="210" edge="1">
                    <mxGeometry relative="1" as="geometry">
                        <Array as="points">
                            <mxPoint x="-230" y="300"/>
                            <mxPoint x="-230" y="805"/>
                        </Array>
                    </mxGeometry>
                </mxCell>
                <mxCell id="221" style="edgeStyle=orthogonalEdgeStyle;html=1;exitX=0;exitY=0.5;exitDx=0;exitDy=0;entryX=0;entryY=0;entryDx=280;entryDy=95;entryPerimeter=0;fontSize=17;fontColor=#FFFFFF;" parent="1" source="46" target="211" edge="1">
                    <mxGeometry relative="1" as="geometry"/>
                </mxCell>
                <mxCell id="229" style="edgeStyle=orthogonalEdgeStyle;html=1;exitX=1;exitY=0.5;exitDx=0;exitDy=0;entryX=0;entryY=0.5;entryDx=0;entryDy=0;fontSize=17;fontColor=#FFFFFF;startArrow=classic;startFill=1;" parent="1" source="21" target="60" edge="1">
                    <mxGeometry relative="1" as="geometry">
                        <Array as="points">
                            <mxPoint x="750" y="300"/>
                            <mxPoint x="750" y="480"/>
                            <mxPoint x="80" y="480"/>
                            <mxPoint x="80" y="730"/>
                        </Array>
                    </mxGeometry>
                </mxCell>
                <mxCell id="232" style="edgeStyle=orthogonalEdgeStyle;html=1;exitX=1;exitY=0.5;exitDx=0;exitDy=0;entryX=0;entryY=0.5;entryDx=0;entryDy=0;fontSize=17;fontColor=#FFFFFF;startArrow=none;startFill=0;" parent="1" source="222" target="61" edge="1">
                    <mxGeometry relative="1" as="geometry">
                        <Array as="points">
                            <mxPoint x="710" y="340"/>
                            <mxPoint x="710" y="440"/>
                            <mxPoint x="40" y="440"/>
                            <mxPoint x="40" y="770"/>
                        </Array>
                    </mxGeometry>
                </mxCell>
                <mxCell id="235" style="edgeStyle=orthogonalEdgeStyle;html=1;exitX=1;exitY=0.5;exitDx=0;exitDy=0;entryX=0;entryY=0.5;entryDx=0;entryDy=0;fontSize=17;fontColor=#FFFFFF;startArrow=classic;startFill=1;" parent="1" source="223" target="233" edge="1">
                    <mxGeometry relative="1" as="geometry">
                        <Array as="points">
                            <mxPoint x="690" y="360"/>
                            <mxPoint x="690" y="420"/>
                            <mxPoint x="20" y="420"/>
                            <mxPoint x="20" y="790"/>
                        </Array>
                    </mxGeometry>
                </mxCell>
                <mxCell id="236" style="edgeStyle=orthogonalEdgeStyle;html=1;exitX=0;exitY=0.5;exitDx=0;exitDy=0;entryX=1;entryY=0.5;entryDx=0;entryDy=0;fontSize=17;fontColor=#FFFFFF;startArrow=none;startFill=0;" parent="1" source="224" target="44" edge="1">
                    <mxGeometry relative="1" as="geometry">
                        <Array as="points">
                            <mxPoint x="120" y="690"/>
                            <mxPoint x="120" y="520"/>
                            <mxPoint x="790" y="520"/>
                            <mxPoint x="790" y="196"/>
                        </Array>
                    </mxGeometry>
                </mxCell>
                <mxCell id="237" style="edgeStyle=orthogonalEdgeStyle;html=1;exitX=1;exitY=0.5;exitDx=0;exitDy=0;entryX=1;entryY=0.5;entryDx=0;entryDy=0;fontSize=17;fontColor=#FFFFFF;startArrow=none;startFill=0;" parent="1" source="226" target="216" edge="1">
                    <mxGeometry relative="1" as="geometry">
                        <Array as="points">
                            <mxPoint x="810" y="710"/>
                            <mxPoint x="810" y="216"/>
                        </Array>
                    </mxGeometry>
                </mxCell>
                <mxCell id="238" style="edgeStyle=orthogonalEdgeStyle;html=1;exitX=1;exitY=0.5;exitDx=0;exitDy=0;entryX=0;entryY=0.5;entryDx=0;entryDy=0;fontSize=17;fontColor=#FFFFFF;startArrow=none;startFill=0;" parent="1" source="225" target="226" edge="1">
                    <mxGeometry relative="1" as="geometry">
                        <Array as="points">
                            <mxPoint x="770" y="280"/>
                            <mxPoint x="770" y="500"/>
                            <mxPoint x="100" y="500"/>
                            <mxPoint x="100" y="710"/>
                        </Array>
                    </mxGeometry>
                </mxCell>
                <mxCell id="240" style="edgeStyle=orthogonalEdgeStyle;html=1;exitX=1;exitY=0.5;exitDx=0;exitDy=0;entryX=0;entryY=0.5;entryDx=0;entryDy=0;fontSize=17;fontColor=#FFFFFF;startArrow=none;startFill=0;" parent="1" source="45" target="59" edge="1">
                    <mxGeometry relative="1" as="geometry">
                        <Array as="points">
                            <mxPoint x="730" y="320"/>
                            <mxPoint x="730" y="460"/>
                            <mxPoint x="60" y="460"/>
                            <mxPoint x="60" y="750"/>
                        </Array>
                    </mxGeometry>
                </mxCell>
                <mxCell id="246" style="edgeStyle=orthogonalEdgeStyle;html=1;exitX=1;exitY=0.5;exitDx=0;exitDy=0;entryX=0;entryY=0.5;entryDx=0;entryDy=0;fontSize=17;fontColor=#FFFFFF;startArrow=classic;startFill=1;" parent="1" source="227" target="77" edge="1">
                    <mxGeometry relative="1" as="geometry">
                        <Array as="points">
                            <mxPoint x="760" y="646"/>
                            <mxPoint x="760" y="920"/>
                            <mxPoint x="160" y="920"/>
                            <mxPoint x="160" y="1060"/>
                        </Array>
                    </mxGeometry>
                </mxCell>
                <mxCell id="248" style="edgeStyle=orthogonalEdgeStyle;html=1;exitX=1;exitY=0.5;exitDx=0;exitDy=0;fontSize=17;fontColor=#FFFFFF;startArrow=none;startFill=0;entryX=0;entryY=0.5;entryDx=0;entryDy=0;" parent="1" source="61" target="244" edge="1">
                    <mxGeometry relative="1" as="geometry">
                        <mxPoint x="210" y="870" as="targetPoint"/>
                        <Array as="points">
                            <mxPoint x="740" y="770"/>
                            <mxPoint x="740" y="900"/>
                            <mxPoint x="140" y="900"/>
                            <mxPoint x="140" y="1100"/>
                        </Array>
                    </mxGeometry>
                </mxCell>
                <mxCell id="249" style="edgeStyle=orthogonalEdgeStyle;html=1;exitX=1;exitY=0.5;exitDx=0;exitDy=0;entryX=0;entryY=0.5;entryDx=0;entryDy=0;fontSize=17;fontColor=#FFFFFF;startArrow=classic;startFill=1;" parent="1" source="233" target="245" edge="1">
                    <mxGeometry relative="1" as="geometry">
                        <Array as="points">
                            <mxPoint x="720" y="790"/>
                            <mxPoint x="720" y="880"/>
                            <mxPoint x="120" y="880"/>
                            <mxPoint x="120" y="1120"/>
                        </Array>
                    </mxGeometry>
                </mxCell>
                <mxCell id="257" style="edgeStyle=orthogonalEdgeStyle;html=1;exitX=0.5;exitY=0;exitDx=0;exitDy=0;entryX=0;entryY=0.5;entryDx=0;entryDy=0;strokeColor=#66FFFF;strokeWidth=3;fontColor=#000000;startArrow=none;startFill=0;" edge="1" parent="1" source="253" target="251">
                    <mxGeometry relative="1" as="geometry"/>
                </mxCell>
                <mxCell id="253" value="MESH&lt;br&gt;Handling" style="rounded=1;whiteSpace=wrap;html=1;fontColor=#000000;" vertex="1" parent="1">
                    <mxGeometry x="-80" y="1060" width="120" height="60" as="geometry"/>
                </mxCell>
                <mxCell id="254" style="edgeStyle=orthogonalEdgeStyle;html=1;exitX=0;exitY=0.5;exitDx=0;exitDy=0;entryX=0;entryY=0.5;entryDx=0;entryDy=0;fontColor=#000000;startArrow=classic;startFill=1;strokeWidth=3;strokeColor=#66FFFF;" edge="1" parent="1" source="216" target="253">
                    <mxGeometry relative="1" as="geometry">
                        <Array as="points">
                            <mxPoint x="-100" y="216"/>
                            <mxPoint x="-100" y="1090"/>
                        </Array>
                    </mxGeometry>
                </mxCell>
                <mxCell id="255" style="edgeStyle=orthogonalEdgeStyle;html=1;exitX=0;exitY=0.5;exitDx=0;exitDy=0;entryX=0.25;entryY=0;entryDx=0;entryDy=0;strokeColor=#66FFFF;strokeWidth=3;fontColor=#000000;startArrow=none;startFill=0;" edge="1" parent="1" source="250" target="253">
                    <mxGeometry relative="1" as="geometry"/>
                </mxCell>
                <mxCell id="258" style="edgeStyle=orthogonalEdgeStyle;html=1;exitX=0;exitY=0.5;exitDx=0;exitDy=0;entryX=0.75;entryY=0;entryDx=0;entryDy=0;strokeColor=#66FFFF;strokeWidth=3;fontColor=#000000;startArrow=none;startFill=0;" edge="1" parent="1" source="252" target="253">
                    <mxGeometry relative="1" as="geometry"/>
                </mxCell>
            </root>
        </mxGraphModel>
    </diagram>
</mxfile>